<?xml version="1.0" encoding="UTF-8"?>
<svg version="1.1" xmlns="http://www.w3.org/2000/svg" width="143" height="165">
<path d="M0 0 C47.19 0 94.38 0 143 0 C143 54.45 143 108.9 143 165 C95.81 165 48.62 165 0 165 C0 110.55 0 56.1 0 0 Z " fill="#FCFCFC" transform="translate(0,0)"/>
<path d="M0 0 C1.7290774 -0.02725341 3.45828176 -0.04650987 5.1875 -0.0625 C6.15042969 -0.07410156 7.11335938 -0.08570313 8.10546875 -0.09765625 C10.86222991 -0.00464811 13.30796292 0.43841611 16 1 C17.175625 0.979375 18.35125 0.95875 19.5625 0.9375 C23 1 23 1 27 3 C27 7.62 27 12.24 27 17 C28.65 17.66 30.3 18.32 32 19 C33.97628815 20.09315121 35.93394212 21.22044869 37.875 22.375 C41.13901736 24.31425726 44.39580015 26.22242865 47.75 28 C54.18904049 31.96248645 58.90333593 36.75477835 63.5625 42.6875 C67.10225259 47.16262763 69.95479325 49.47739662 75 52 C76.9216431 54.12753344 78.08351258 56.15613222 79.4375 58.6875 C80.78169801 61.16029639 80.78169801 61.16029639 83.1875 61.8125 C83.785625 61.874375 84.38375 61.93625 85 62 C85.25 69.625 85.25 69.625 83 73 C79.875 73.6875 79.875 73.6875 77 74 C76.96261719 74.90621094 76.92523438 75.81242187 76.88671875 76.74609375 C76.11813373 90.98752204 76.11813373 90.98752204 73 97 C70.70602818 98.14698591 69.48369909 98.03192814 66.9375 98.0625 C61.89706676 98.5285429 57.85478616 100.27230331 53.375 102.5 C46.19835279 106.05622621 38.92059494 109.14167496 31.4375 112 C30.42671387 112.39767578 29.41592773 112.79535156 28.37451172 113.20507812 C22.20443563 115.52846059 16.30394323 117.59860749 9.8125 115.1875 C9.214375 115.125625 8.61625 115.06375 8 115 C7.21625 115.804375 6.4325 116.60875 5.625 117.4375 C3 120 3 120 0.4296875 120.58984375 C-4.91345873 119.67091997 -8.32671542 116.44999802 -12.5 113.125 C-14.28674315 111.74087333 -16.07450837 110.35806505 -17.86328125 108.9765625 C-18.73678223 108.29625977 -19.6102832 107.61595703 -20.51025391 106.91503906 C-23.84136699 104.35284539 -27.25232795 101.91950153 -30.6875 99.5 C-31.24606689 99.09265625 -31.80463379 98.6853125 -32.38012695 98.265625 C-34.77758972 96.51965061 -37.12808369 94.93195554 -39.75 93.5390625 C-42.62038299 91.87387237 -44.13622983 90.77628582 -46 88 C-47.11981719 83.7692645 -47.62539359 79.46566149 -47.95385742 75.10791016 C-48.31436372 69.72961798 -48.31436372 69.72961798 -51.4609375 65.49609375 C-52.29882812 65.00238281 -53.13671875 64.50867188 -54 64 C-56.05861773 62.07862345 -56.90654498 60.8860255 -57.203125 58.07421875 C-57.11977246 55.79452678 -56.89529281 54.1025816 -56 52 C-52.75 50.375 -52.75 50.375 -49 49 C-47.53184349 47.52057172 -47.53184349 47.52057172 -46.3125 45.8125 C-45.549375 44.884375 -44.78625 43.95625 -44 43 C-42.68 43 -41.36 43 -40 43 C-39.90912109 42.14728516 -39.90912109 42.14728516 -39.81640625 41.27734375 C-39.64197018 39.66984825 -39.46060079 38.06309465 -39.2734375 36.45703125 C-39.0389888 34.35034225 -38.85788992 32.23783506 -38.6875 30.125 C-38 27 -38 27 -36.34399414 25.41870117 C-33.54351913 23.72371521 -30.98125446 22.98282667 -27.80859375 22.17578125 C-26.02098633 21.71655273 -26.02098633 21.71655273 -24.19726562 21.24804688 C-22.33618164 20.78495117 -22.33618164 20.78495117 -20.4375 20.3125 C-19.19291016 19.99216797 -17.94832031 19.67183594 -16.66601562 19.34179688 C-7.44363006 17 -7.44363006 17 -4 17 C-4 13.04 -4 9.08 -4 5 C-3.01 4.67 -2.02 4.34 -1 4 C-0.26676204 1.98491642 -0.26676204 1.98491642 0 0 Z " fill="#282A31" transform="translate(57,44)"/>
<path d="M0 0 C12.045 -0.061875 24.09 -0.12375 36.5 -0.1875 C40.29048828 -0.21481201 44.08097656 -0.24212402 47.98632812 -0.27026367 C52.64746094 -0.28381348 52.64746094 -0.28381348 54.83581543 -0.28633118 C56.35049083 -0.29091057 57.86515592 -0.30140468 59.37976074 -0.31672668 C77.99300873 -0.49546047 77.99300873 -0.49546047 84.9375 5.5625 C87.87723672 9.03673431 88.4062081 11.29793525 88.34765625 15.8984375 C87.71520089 19.72159464 85.80915644 21.37812065 83 24 C81.34416775 24.69313908 79.67889021 25.36474424 78 26 C76.8499169 27.96672915 76.8499169 27.96672915 76 30 C75.01 30.66 74.02 31.32 73 32 C73.495 32.391875 73.99 32.78375 74.5 33.1875 C76.45593143 35.55091715 76.24207973 37.01435003 76 40 C74.02 40.99 74.02 40.99 72 42 C72.495 43.98 72.495 43.98 73 46 C67.72 45.34 62.44 44.68 57 44 C56.67 45.65 56.34 47.3 56 49 C55.01 49 54.02 49 53 49 C53 52.96 53 56.92 53 61 C52.10692139 61.23187012 51.21384277 61.46374023 50.29370117 61.70263672 C46.97705801 62.56660898 43.66182467 63.43563232 40.34741211 64.30810547 C38.91337345 64.68448591 37.47880461 65.05885242 36.04370117 65.43115234 C33.97952454 65.96702374 31.91737071 66.51013837 29.85546875 67.0546875 C28.61434326 67.37937012 27.37321777 67.70405273 26.09448242 68.03857422 C22.875496 68.87871997 22.875496 68.87871997 20 71 C19.27152074 74.41428664 18.77101397 77.7717648 18.359375 81.234375 C18.0390625 83.375 18.0390625 83.375 17 87 C14.53125 88.34375 14.53125 88.34375 12 89 C10.61767557 90.62626404 9.28062485 92.2925002 8 94 C5 96 5 96 1 96 C0.67 96.99 0.34 97.98 0 99 C0 66.33 0 33.66 0 0 Z " fill="#FDFDFD" transform="translate(0,0)"/>
<path d="M0 0 C1.7290774 -0.02725341 3.45828176 -0.04650987 5.1875 -0.0625 C6.15042969 -0.07410156 7.11335938 -0.08570313 8.10546875 -0.09765625 C10.86222991 -0.00464811 13.30796292 0.43841611 16 1 C17.175625 0.979375 18.35125 0.95875 19.5625 0.9375 C23 1 23 1 27 3 C27 7.62 27 12.24 27 17 C28.65 17.66 30.3 18.32 32 19 C33.97628815 20.09315121 35.93394212 21.22044869 37.875 22.375 C41.13901736 24.31425726 44.39580015 26.22242865 47.75 28 C54.18904049 31.96248645 58.90333593 36.75477835 63.5625 42.6875 C67.07862453 47.12828012 69.90757295 49.6096771 75 52 C77 54 77 54 77.125 56.625 C77.08375 57.40875 77.0425 58.1925 77 59 C75.7625 59.0825 74.525 59.165 73.25 59.25 C68.0837304 59.79942867 63.4674646 61.39359489 58.6015625 63.16015625 C56 64 56 64 53 64 C52.1617875 60.06352226 51.33026745 56.12566049 50.5 52.1875 C50.14228516 50.50817383 50.14228516 50.50817383 49.77734375 48.79492188 C49.55175781 47.72177734 49.32617188 46.64863281 49.09375 45.54296875 C48.88427734 44.55321045 48.67480469 43.56345215 48.45898438 42.54370117 C48 40 48 40 48 37 C47.13721436 37.21205078 46.27442871 37.42410156 45.38549805 37.64257812 C42.18254663 38.42804893 38.97887273 39.2104276 35.7746582 39.99072266 C34.38828813 40.32900409 33.00221708 40.66851352 31.61645508 41.00927734 C29.62398475 41.4990067 27.63047905 41.98430278 25.63671875 42.46875 C24.43748779 42.76201172 23.23825684 43.05527344 22.00268555 43.35742188 C19 44 19 44 16 44 C18.86844226 55.19660333 18.86844226 55.19660333 22.484375 66.16796875 C23 68 23 68 23 72 C5.02941176 79.25735294 5.02941176 79.25735294 -4 77 C-4.33 76.01 -4.66 75.02 -5 74 C-5.66 74 -6.32 74 -7 74 C-6.56563079 67.88453878 -5.94992376 62.01211604 -4.40234375 56.0703125 C-4.26957031 55.38710937 -4.13679688 54.70390625 -4 54 C-3.80535156 53.19691406 -3.61070313 52.39382812 -3.41015625 51.56640625 C-3.73670572 48.94253742 -3.73670572 48.94253742 -5.59741211 47.69824219 C-7.85728054 46.30939452 -10.15190457 45.04627669 -12.5 43.8125 C-14.09721951 42.95040775 -15.69117903 42.08223838 -17.28125 41.20703125 C-17.99345703 40.8303833 -18.70566406 40.45373535 -19.43945312 40.06567383 C-19.95443359 39.71400146 -20.46941406 39.3623291 -21 39 C-21 38.34 -21 37.68 -21 37 C-21.55171875 36.88785156 -22.1034375 36.77570313 -22.671875 36.66015625 C-25.40065211 35.88639227 -27.72772943 34.73182306 -30.25 33.4375 C-31.58804687 32.75494141 -31.58804687 32.75494141 -32.953125 32.05859375 C-33.62859375 31.70925781 -34.3040625 31.35992187 -35 31 C-35.103125 32.299375 -35.20625 33.59875 -35.3125 34.9375 C-35.848308 39.90160353 -37.24930225 44.34248334 -39 49 C-40.65 48.34 -42.3 47.68 -44 47 C-44.433125 48.2065625 -44.433125 48.2065625 -44.875 49.4375 C-46 52 -46 52 -48 53 C-46.49090237 57.03616645 -44.14723391 58.49380856 -40.5625 60.75 C-35.47449484 64.02650511 -30.55981272 67.45012729 -25.69140625 71.04296875 C-22.12257106 73.63801437 -18.46852134 76.10192196 -14.80078125 78.5546875 C-14.20652344 79.03164062 -13.61226562 79.50859375 -13 80 C-13 80.66 -13 81.32 -13 82 C-15.31 81.34 -17.62 80.68 -20 80 C-20.33 81.98 -20.66 83.96 -21 86 C-21.33 86 -21.66 86 -22 86 C-21.95166016 85.12988281 -21.95166016 85.12988281 -21.90234375 84.2421875 C-21.95795827 80.49747659 -22.14167125 77.94806312 -24.71875 75.1015625 C-30.21429061 71.134711 -35.29455663 70.02799768 -42 70 C-42 69.34 -42 68.68 -42 68 C-40.02 67.505 -40.02 67.505 -38 67 C-39.7241302 65.70161824 -41.45453232 64.41156253 -43.1875 63.125 C-44.15042969 62.40570313 -45.11335938 61.68640625 -46.10546875 60.9453125 C-48.72130833 59.18729885 -51.07957756 58.11974746 -54 57 C-54.66 56.34 -55.32 55.68 -56 55 C-56 54.01 -56 53.02 -56 52 C-54.948125 51.62875 -53.89625 51.2575 -52.8125 50.875 C-49.84421227 49.63621863 -48.24913139 48.37248462 -46.3125 45.8125 C-45.549375 44.884375 -44.78625 43.95625 -44 43 C-42.68 43 -41.36 43 -40 43 C-39.90912109 42.14728516 -39.90912109 42.14728516 -39.81640625 41.27734375 C-39.64197018 39.66984825 -39.46060079 38.06309465 -39.2734375 36.45703125 C-39.0389888 34.35034225 -38.85788992 32.23783506 -38.6875 30.125 C-38 27 -38 27 -36.34399414 25.41870117 C-33.54351913 23.72371521 -30.98125446 22.98282667 -27.80859375 22.17578125 C-26.02098633 21.71655273 -26.02098633 21.71655273 -24.19726562 21.24804688 C-22.33618164 20.78495117 -22.33618164 20.78495117 -20.4375 20.3125 C-19.19291016 19.99216797 -17.94832031 19.67183594 -16.66601562 19.34179688 C-7.44363006 17 -7.44363006 17 -4 17 C-4 13.04 -4 9.08 -4 5 C-3.01 4.67 -2.02 4.34 -1 4 C-0.26676204 1.98491642 -0.26676204 1.98491642 0 0 Z " fill="#0E1219" transform="translate(57,44)"/>
<path d="M0 0 C3.38891322 0.68886787 6.18011613 1.98716486 9.25 3.5625 C10.14203125 4.01753906 11.0340625 4.47257812 11.953125 4.94140625 C12.96632813 5.46541016 12.96632813 5.46541016 14 6 C14 6.66 14 7.32 14 8 C15.04414062 8.38478516 15.04414062 8.38478516 16.109375 8.77734375 C19.32942207 10.13933663 22.23927189 11.78646704 25.25 13.5625 C26.30703125 14.18253906 27.3640625 14.80257812 28.453125 15.44140625 C31 17 31 17 32 18 C31.93408275 26.48684611 29.90852573 34.77773506 28 43 C28.66 43 29.32 43 30 43 C30.69029297 43.74443359 30.69029297 43.74443359 31.39453125 44.50390625 C33.08398891 46.42524894 33.08398891 46.42524894 36.6875 45.9375 C43.89742358 44.88355768 50.96339811 42.85628148 58 41 C57.78794922 40.29391602 57.57589844 39.58783203 57.35742188 38.86035156 C56.39930545 35.6585581 55.44956933 32.45433819 54.5 29.25 C54.16613281 28.13882813 53.83226563 27.02765625 53.48828125 25.8828125 C53.17246094 24.81289062 52.85664062 23.74296875 52.53125 22.640625 C52.09135742 21.16384277 52.09135742 21.16384277 51.64257812 19.65722656 C51 17 51 17 51 13 C76.69035533 6 76.69035533 6 83 6 C83.84464056 9.37227237 84.67366647 12.74819921 85.5 16.125 C85.85771484 17.55199219 85.85771484 17.55199219 86.22265625 19.0078125 C87.37785933 23.76064801 88.33216612 28.06733309 88 33 C89.24136719 32.566875 90.48273438 32.13375 91.76171875 31.6875 C93.40350892 31.12460051 95.04544367 30.5621226 96.6875 30 C97.50412109 29.71382812 98.32074219 29.42765625 99.16210938 29.1328125 C103.3029082 27.72460561 106.58988944 26.86508266 111 27 C111.66 26.34 112.32 25.68 113 25 C113.4125 25.804375 113.825 26.60875 114.25 27.4375 C115.73452331 30.14109718 115.73452331 30.14109718 118.1875 30.8125 C118.785625 30.874375 119.38375 30.93625 120 31 C120.25 38.625 120.25 38.625 118 42 C117.34 42 116.68 42 116 42 C116 41.34 116 40.68 116 40 C114.88625 40.185625 113.7725 40.37125 112.625 40.5625 C109 41 109 41 107 40 C107.33 38.68 107.66 37.36 108 36 C109.98 35.67 111.96 35.34 114 35 C113.67 34.34 113.34 33.68 113 33 C101.33983651 35.95948682 89.73970876 38.96840804 78.28515625 42.65234375 C71.8602566 44.70178574 65.36786662 46.53009034 58.88793945 48.39624023 C54.25353102 49.73667992 49.63326081 51.0963082 45.046875 52.59375 C44.31210938 52.83287109 43.57734375 53.07199219 42.8203125 53.31835938 C40.89276508 53.95299527 38.96962381 54.60097087 37.046875 55.25 C32.73133586 56.31228656 31.19361889 55.71434902 27.44140625 53.46875 C26.49136719 52.8190625 25.54132812 52.169375 24.5625 51.5 C23.49902344 50.77554688 22.43554688 50.05109375 21.33984375 49.3046875 C20.22634214 48.53677777 19.11306024 47.76854935 18 47 C16.94941406 46.28070313 15.89882813 45.56140625 14.81640625 44.8203125 C9.00905343 40.82553614 3.24281593 36.77434683 -2.5 32.6875 C-3.07540527 32.27902832 -3.65081055 31.87055664 -4.24365234 31.44970703 C-7.58115804 29.06493424 -10.82088257 26.5919297 -14 24 C-13.505 22.515 -13.505 22.515 -13 21 C-12.34 21 -11.68 21 -11 21 C-10.34 19.35 -9.68 17.7 -9 16 C-7.68 16.33 -6.36 16.66 -5 17 C-2.75519358 11.38798394 -1.16651426 5.92863717 0 0 Z " fill="#8E9FB6" transform="translate(22,75)"/>
<path d="M0 0 C0.495 1.485 0.495 1.485 1 3 C0.030625 3.268125 -0.93875 3.53625 -1.9375 3.8125 C-2.948125 4.204375 -3.95875 4.59625 -5 5 C-5.33 5.99 -5.66 6.98 -6 8 C-3.03 8 -0.06 8 3 8 C3 8.66 3 9.32 3 10 C1.68 10.33 0.36 10.66 -1 11 C-1.03738281 11.90621094 -1.07476562 12.81242187 -1.11328125 13.74609375 C-1.88186627 27.98752204 -1.88186627 27.98752204 -5 34 C-7.29397182 35.14698591 -8.51630091 35.03192814 -11.0625 35.0625 C-17.14012644 35.60467675 -21.91896265 38.10029231 -27.30322266 40.76586914 C-32.4265306 43.29354141 -37.58113635 45.51260691 -42.9375 47.5 C-43.6176416 47.75483154 -44.2977832 48.00966309 -44.99853516 48.2722168 C-49.72102146 50 -49.72102146 50 -52 50 C-52 49.34 -52 48.68 -52 48 C-54.475 48.495 -54.475 48.495 -57 49 C-56.34 39.1 -55.68 29.2 -55 19 C-54.01 19 -53.02 19 -52 19 C-52 26.92 -52 34.84 -52 43 C-47.545 42.505 -47.545 42.505 -43 42 C-43 41.34 -43 40.68 -43 40 C-44.98 40 -46.96 40 -49 40 C-49 32.41 -49 24.82 -49 17 C-48.34 17 -47.68 17 -47 17 C-47 16.34 -47 15.68 -47 15 C-47.99 14.67 -48.98 14.34 -50 14 C-48.7625 13.64808594 -47.525 13.29617187 -46.25 12.93359375 C-44.49995067 12.43506896 -42.74995515 11.93635529 -41 11.4375 C-40.071875 11.17300049 -39.14375 10.90850098 -38.1875 10.63598633 C-32.93210435 9.1347567 -27.68176622 7.6178117 -22.4375 6.078125 C-21.36371094 5.76302979 -20.28992188 5.44793457 -19.18359375 5.12329102 C-17.0918994 4.50845479 -15.0007355 3.89181056 -12.91015625 3.27319336 C-11.94980469 2.99096924 -10.98945312 2.70874512 -10 2.41796875 C-9.154375 2.16813232 -8.30875 1.9182959 -7.4375 1.66088867 C-4.97289187 0.99265007 -2.50895209 0.4718286 0 0 Z " fill="#0A0D12" transform="translate(135,107)"/>
<path d="M0 0 C1.99954746 -0.04254356 4.00041636 -0.04080783 6 0 C6.495 0.495 6.495 0.495 7 1 C8.85287502 1.07226502 10.70833878 1.0838122 12.5625 1.0625 C13.57441406 1.05347656 14.58632812 1.04445312 15.62890625 1.03515625 C16.41136719 1.02355469 17.19382813 1.01195312 18 1 C18 1.66 18 2.32 18 3 C16.35 3.33 14.7 3.66 13 4 C13.48895752 4.55719727 13.97791504 5.11439453 14.48168945 5.68847656 C16.26570129 8.40451194 16.35174944 9.77103038 16.29296875 12.984375 C16.2784668 14.38623047 16.2784668 14.38623047 16.26367188 15.81640625 C16.23853516 16.78449219 16.21339844 17.75257812 16.1875 18.75 C16.16719727 20.22533203 16.16719727 20.22533203 16.14648438 21.73046875 C16.11118726 24.15420415 16.06188054 26.57682145 16 29 C14.68 29 13.36 29 12 29 C12.02618408 28.40985107 12.05236816 27.81970215 12.0793457 27.21166992 C12.18329224 24.53721755 12.2483128 21.86318935 12.3125 19.1875 C12.3753418 17.7943457 12.3753418 17.7943457 12.43945312 16.37304688 C12.48542018 13.82647203 12.46836456 11.50428138 12 9 C8.83177554 6.01717938 7.38658841 6 3 6 C3.66 6.33 4.32 6.66 5 7 C5 13.93 5 20.86 5 28 C2.03 28.33 -0.94 28.66 -4 29 C-4.495 26.03 -4.495 26.03 -5 23 C-5.66 23 -6.32 23 -7 23 C-7 23.99 -7 24.98 -7 26 C-8.65 25.34 -10.3 24.68 -12 24 C-11.01 23.01 -10.02 22.02 -9 21 C-10.4800841 21.11362262 -11.95910074 21.24122908 -13.4375 21.375 C-14.26121094 21.44460937 -15.08492187 21.51421875 -15.93359375 21.5859375 C-16.61550781 21.72257812 -17.29742187 21.85921875 -18 22 C-18.33 22.66 -18.66 23.32 -19 24 C-18.175 24.226875 -17.35 24.45375 -16.5 24.6875 C-11.46376426 26.5760884 -7.2294249 29.55087382 -2.734375 32.47265625 C-1.97640625 32.93542969 -1.2184375 33.39820313 -0.4375 33.875 C0.24441406 34.30554688 0.92632812 34.73609375 1.62890625 35.1796875 C8.27792571 37.48000725 17.3842812 33.54320626 23.9375 31.9375 C25.09830078 31.65583984 26.25910156 31.37417969 27.45507812 31.08398438 C30.30411003 30.39224412 33.15237405 29.69750122 36 29 C36 28.34 36 27.68 36 27 C31.71 24.69 27.42 22.38 23 20 C23.495 18.515 23.495 18.515 24 17 C24.73319458 17.43868408 24.73319458 17.43868408 25.48120117 17.88623047 C27.7144282 19.21955559 29.95091617 20.5473141 32.1875 21.875 C32.95642578 22.33519531 33.72535156 22.79539062 34.51757812 23.26953125 C40.03474464 26.61432375 40.03474464 26.61432375 46 29 C46.99 28.505 46.99 28.505 48 28 C52.48209833 31.52846039 55.98425623 35.12026484 59.5 39.625 C63.05969913 44.12178232 65.95871705 46.42791686 71 49 C72.19140625 51.09765625 72.19140625 51.09765625 73 53 C71.081875 53.1546875 71.081875 53.1546875 69.125 53.3125 C64.59299539 53.80012075 60.48133215 54.94666918 56.1640625 56.37890625 C54 57 54 57 51 57 C51.33 55.68 51.66 54.36 52 53 C54.97 52.34 57.94 51.68 61 51 C61 50.34 61 49.68 61 49 C57.37 49.33 53.74 49.66 50 50 C49.70996094 48.42798828 49.70996094 48.42798828 49.4140625 46.82421875 C49.15140066 45.44524407 48.88836 44.06634151 48.625 42.6875 C48.49867187 41.99720703 48.37234375 41.30691406 48.2421875 40.59570312 C47.57885682 37.16296686 46.96502361 34.94753542 45 32 C36.75132074 32.49772417 28.99139445 34.27623122 21 36.3125 C19.7934375 36.60833984 18.586875 36.90417969 17.34375 37.20898438 C10.99369607 38.80685121 5.08385919 40.58482011 -0.81640625 43.44995117 C-4.77016721 44.44590639 -7.59695779 42.2373352 -10.9453125 40.265625 C-11.99460937 39.60046875 -13.04390625 38.9353125 -14.125 38.25 C-19.17557121 35.08111329 -24.29630937 32.12589639 -29.5625 29.32421875 C-32.08742186 27.95250639 -34.54599924 26.49431118 -37 25 C-33.33997343 22.89783089 -29.44220403 21.97820034 -25.375 21 C-24.66657959 20.82702393 -23.95815918 20.65404785 -23.22827148 20.47583008 C-10.54494647 17.4099598 -10.54494647 17.4099598 -7 17 C-6.67 17.33 -6.34 17.66 -6 18 C-5.67 14.04 -5.34 10.08 -5 6 C-3.68 5.67 -2.36 5.34 -1 5 C-0.67 4.01 -0.34 3.02 0 2 C0 2.66 0 3.32 0 4 C0.66 3.67 1.32 3.34 2 3 C2 2.34 2 1.68 2 1 C1.34 0.67 0.68 0.34 0 0 Z " fill="#8E9EB4" transform="translate(61,47)"/>
<path d="M0 0 C3.38891322 0.68886787 6.18011613 1.98716486 9.25 3.5625 C10.14203125 4.01753906 11.0340625 4.47257812 11.953125 4.94140625 C12.96632813 5.46541016 12.96632813 5.46541016 14 6 C14 6.66 14 7.32 14 8 C15.04414062 8.38478516 15.04414062 8.38478516 16.109375 8.77734375 C19.32942207 10.13933663 22.23927189 11.78646704 25.25 13.5625 C26.30703125 14.18253906 27.3640625 14.80257812 28.453125 15.44140625 C31 17 31 17 32 18 C31.88262217 23.13753715 31.31890939 28.23416061 29.9375 33.1875 C29.16953889 36.31054184 28.9384885 38.21221261 29.0625 41.3125 C29 45 29 45 27.765625 46.765625 C26 48 26 48 23.94921875 47.99609375 C18.86193385 46.7396486 15.23992228 45.20157396 11 42 C9.50272657 40.954418 8.00238047 39.9132304 6.5 38.875 C5.65695313 38.27816406 4.81390625 37.68132812 3.9453125 37.06640625 C1.72452039 35.50831735 -0.50807431 33.97998513 -2.7578125 32.46484375 C-4.04706124 31.58100077 -5.33612487 30.69688772 -6.625 29.8125 C-7.25341797 29.39661621 -7.88183594 28.98073242 -8.52929688 28.55224609 C-10.2890625 27.33203125 -10.2890625 27.33203125 -13 25 C-13 23.68 -13 22.36 -13 21 C-12.34 21 -11.68 21 -11 21 C-10.34 19.35 -9.68 17.7 -9 16 C-7.68 16.33 -6.36 16.66 -5 17 C-2.75519358 11.38798394 -1.16651426 5.92863717 0 0 Z " fill="#8E9FB6" transform="translate(22,75)"/>
<path d="M0 0 C7.18191306 1.24902836 11.54609188 5.38656013 17 10 C18.3254612 11.010411 19.65599167 12.01439389 21 13 C19.02 13 17.04 13 15 13 C15 13.66 15 14.32 15 15 C15.60585937 14.91878906 16.21171875 14.83757812 16.8359375 14.75390625 C23.53158747 14.24915725 27.77767279 15.70836195 33.125 19.77734375 C35.40741378 22.48295508 35.625 23.93527902 35.625 27.4375 C35.46572642 28.96425104 35.2735258 30.48952973 35 32 C35.70511719 32.27585938 36.41023438 32.55171875 37.13671875 32.8359375 C38.08160156 33.22007812 39.02648438 33.60421875 40 34 C40.95519531 34.38414062 41.91039062 34.76828125 42.89453125 35.1640625 C46.23185595 36.83495867 48.50399476 38.19949928 51 41 C52.37389759 46.21193831 51.62769838 51.71845711 51 57 C44.16177327 53.62885015 37.9831486 49.74822936 32.07641602 44.93798828 C29.18900214 42.6028261 26.34976798 40.56798082 23.09765625 38.765625 C13.76866619 33.39768412 13.76866619 33.39768412 12.29589844 28.80371094 C11.43283147 23.51291956 11.59371855 18.328091 12 13 C11.34 13 10.68 13 10 13 C9.67 14.32 9.34 15.64 9 17 C8.938125 16.4225 8.87625 15.845 8.8125 15.25 C7.6775227 12.10698594 5.62628394 11.00097824 3 9 C0.73831953 6.58234157 0.03976474 5.58321624 -0.1875 2.25 C-0.125625 1.5075 -0.06375 0.765 0 0 Z " fill="#8C9CB2" transform="translate(0,99)"/>
<path d="M0 0 C0 0.66 0 1.32 0 2 C-0.66 2 -1.32 2 -2 2 C-2 9.59 -2 17.18 -2 25 C1.465 24.505 1.465 24.505 5 24 C4.505 25.485 4.505 25.485 4 27 C1.03 27.33 -1.94 27.66 -5 28 C-5 20.08 -5 12.16 -5 4 C-5.99 4 -6.98 4 -8 4 C-7.97679688 5.16015625 -7.95359375 6.3203125 -7.9296875 7.515625 C-7.80558079 16.56184037 -8.04831347 25.11285598 -10 34 C-7.525 33.505 -7.525 33.505 -5 33 C-6 36 -6 36 -8.0625 37.1875 C-12.39340757 38.3854106 -16.89176644 38.78305818 -21.1875 37.1875 C-22.0846875 37.0946875 -22.0846875 37.0946875 -23 37 C-25.64587234 39.39585286 -25.64587234 39.39585286 -28 42 C-28.66 42 -29.32 42 -30 42 C-30.495 40.515 -30.495 40.515 -31 39 C-30.01 38.505 -30.01 38.505 -29 38 C-28.35253099 35.42497419 -27.8280709 32.92228084 -27.375 30.3125 C-27.17390625 29.24999023 -27.17390625 29.24999023 -26.96875 28.16601562 C-26.22547017 24.05901536 -25.85477504 20.1917203 -26 16 C-25.34 15.67 -24.68 15.34 -24 15 C-24.0825 13.741875 -24.165 12.48375 -24.25 11.1875 C-24.390625 9.04296875 -24.390625 9.04296875 -24 7 C-20.94134423 3.86600788 -17.26324856 2.97387944 -13.125 1.8125 C-11.93132812 1.46832031 -10.73765625 1.12414062 -9.5078125 0.76953125 C-6.20360867 0.04466693 -3.36702793 -0.14930246 0 0 Z " fill="#090B10" transform="translate(88,122)"/>
<path d="M0 0 C3.64986814 2.18052784 5.77831541 4.00890172 7.375 8.01953125 C7.90220041 12.68902058 8.13158076 15.61722009 5.1875 19.39453125 C2.49161155 21.9106938 0.73233609 22.74918786 -2.625 24.01953125 C-3.90936734 26.00330795 -3.90936734 26.00330795 -4.625 28.01953125 C-5.625 29.01953125 -5.625 29.01953125 -7.875 29.15234375 C-8.7825 29.14976563 -9.69 29.1471875 -10.625 29.14453125 C-11.98625 29.14839844 -11.98625 29.14839844 -13.375 29.15234375 C-15.625 29.01953125 -15.625 29.01953125 -16.625 28.01953125 C-17.00814997 24.03477158 -17.02454367 21.71104913 -15 18.20703125 C-12.31203734 15.73127617 -10.14218971 14.89882868 -6.625 14.01953125 C-6.955 13.02953125 -7.285 12.03953125 -7.625 11.01953125 C-10.55943402 11.28609697 -10.55943402 11.28609697 -13.625 12.01953125 C-14.615 13.50453125 -14.615 13.50453125 -15.625 15.01953125 C-19.45532799 14.72489064 -21.97734913 14.48907813 -25.125 12.20703125 C-26.625 10.01953125 -26.625 10.01953125 -26.6875 8.08203125 C-21.56562781 -1.86042653 -9.89705161 -3.6966666 0 0 Z " fill="#1F1F0E" transform="translate(80.625,1.98046875)"/>
<path d="M0 0 C1.99954746 -0.04254356 4.00041636 -0.04080783 6 0 C6.495 0.495 6.495 0.495 7 1 C8.85287502 1.07226502 10.70833878 1.0838122 12.5625 1.0625 C13.57441406 1.05347656 14.58632812 1.04445312 15.62890625 1.03515625 C16.41136719 1.02355469 17.19382813 1.01195312 18 1 C18 1.66 18 2.32 18 3 C16.35 3.33 14.7 3.66 13 4 C13.48895752 4.55719727 13.97791504 5.11439453 14.48168945 5.68847656 C16.26570129 8.40451194 16.35174944 9.77103038 16.29296875 12.984375 C16.2784668 14.38623047 16.2784668 14.38623047 16.26367188 15.81640625 C16.23853516 16.78449219 16.21339844 17.75257812 16.1875 18.75 C16.16719727 20.22533203 16.16719727 20.22533203 16.14648438 21.73046875 C16.11118726 24.15420415 16.06188054 26.57682145 16 29 C14.68 29 13.36 29 12 29 C12.02618408 28.40985107 12.05236816 27.81970215 12.0793457 27.21166992 C12.18329224 24.53721755 12.2483128 21.86318935 12.3125 19.1875 C12.3753418 17.7943457 12.3753418 17.7943457 12.43945312 16.37304688 C12.48542018 13.82647203 12.46836456 11.50428138 12 9 C8.83177554 6.01717938 7.38658841 6 3 6 C3.66 6.33 4.32 6.66 5 7 C5 13.93 5 20.86 5 28 C2.03 28.33 -0.94 28.66 -4 29 C-4.495 26.03 -4.495 26.03 -5 23 C-5.66 23 -6.32 23 -7 23 C-7 23.99 -7 24.98 -7 26 C-8.65 25.34 -10.3 24.68 -12 24 C-11.01 23.01 -10.02 22.02 -9 21 C-10.4800841 21.11362262 -11.95910074 21.24122908 -13.4375 21.375 C-14.26121094 21.44460937 -15.08492187 21.51421875 -15.93359375 21.5859375 C-16.61550781 21.72257812 -17.29742187 21.85921875 -18 22 C-18.33 22.66 -18.66 23.32 -19 24 C-18.071875 24.268125 -17.14375 24.53625 -16.1875 24.8125 C-13.23759634 25.91148371 -11.94384814 26.62418561 -10 29 C-10.99 29.33 -11.98 29.66 -13 30 C-13 29.34 -13 28.68 -13 28 C-14.98 28 -16.96 28 -19 28 C-19.66 29.32 -20.32 30.64 -21 32 C-19.68 32.66 -18.36 33.32 -17 34 C-17.33 34.66 -17.66 35.32 -18 36 C-20.98411132 34.38395881 -23.9613735 32.75569271 -26.9375 31.125 C-27.78763672 30.66480469 -28.63777344 30.20460938 -29.51367188 29.73046875 C-30.32255859 29.28574219 -31.13144531 28.84101562 -31.96484375 28.3828125 C-32.7137085 27.97434082 -33.46257324 27.56586914 -34.23413086 27.14501953 C-36 26 -36 26 -37 24 C-35.97261719 23.74605469 -34.94523437 23.49210937 -33.88671875 23.23046875 C-32.48695776 22.88289868 -31.08721977 22.53523602 -29.6875 22.1875 C-28.96143555 22.00807861 -28.23537109 21.82865723 -27.48730469 21.64379883 C-22.36084417 20.36784705 -17.28705177 18.96358571 -12.234375 17.41796875 C-10 17 -10 17 -6 18 C-5.67 14.04 -5.34 10.08 -5 6 C-3.68 5.67 -2.36 5.34 -1 5 C-0.67 4.01 -0.34 3.02 0 2 C0 2.66 0 3.32 0 4 C0.66 3.67 1.32 3.34 2 3 C2 2.34 2 1.68 2 1 C1.34 0.67 0.68 0.34 0 0 Z " fill="#8795A7" transform="translate(61,47)"/>
<path d="M0 0 C0.66 0.33 1.32 0.66 2 1 C2 8.59 2 16.18 2 24 C1.01 24 0.02 24 -1 24 C-0.505 25.98 -0.505 25.98 0 28 C1.32 27.34 2.64 26.68 4 26 C4 24.68 4 23.36 4 22 C6.9719385 23.12451727 9.33440687 24.22293791 12 26 C12 26.66 12 27.32 12 28 C12.99 28.66 13.98 29.32 15 30 C10.94167606 31.03794709 6.87781907 32.05232981 2.8125 33.0625 C1.66201172 33.35705078 0.51152344 33.65160156 -0.67382812 33.95507812 C-1.78564453 34.22900391 -2.89746094 34.50292969 -4.04296875 34.78515625 C-5.06414795 35.04176025 -6.08532715 35.29836426 -7.13745117 35.56274414 C-13.07078879 36.46906462 -17.30160801 33.99416565 -22.375 31.1875 C-23.00921875 30.84396484 -23.6434375 30.50042969 -24.296875 30.14648438 C-28.56600213 27.82460197 -32.78710779 25.42214087 -37 23 C-36.505 21.515 -36.505 21.515 -36 20 C-32.7 19.67 -29.4 19.34 -26 19 C-26.99 20.32 -27.98 21.64 -29 23 C-27.68 23.66 -26.36 24.32 -25 25 C-25 24.01 -25 23.02 -25 22 C-24.01 21.67 -23.02 21.34 -22 21 C-22 23.31 -22 25.62 -22 28 C-19.03 27.67 -16.06 27.34 -13 27 C-13 20.07 -13 13.14 -13 6 C-14.32 5.67 -15.64 5.34 -17 5 C-11.52667068 3.53154579 -8.88077452 4.55961274 -4 7 C-4.66 7.33 -5.32 7.66 -6 8 C-6 14.6 -6 21.2 -6 28 C-4.68 28 -3.36 28 -2 28 C-2.33 20.41 -2.66 12.82 -3 5 C-3.99 4.67 -4.98 4.34 -6 4 C-5.67 3.34 -5.34 2.68 -5 2 C-3.35 2 -1.7 2 0 2 C0 1.34 0 0.68 0 0 Z " fill="#090B0E" transform="translate(79,48)"/>
<path d="M0 0 C-0.33 7.26 -0.66 14.52 -1 22 C-3.206875 22.804375 -5.41375 23.60875 -7.6875 24.4375 C-8.37287842 24.68943115 -9.05825684 24.9413623 -9.7644043 25.20092773 C-13.20873229 26.44320166 -16.38178826 27.27635765 -20 28 C-20 20.41 -20 12.82 -20 5 C-17.07125 4.175 -14.1425 3.35 -11.125 2.5 C-10.20348145 2.23896484 -9.28196289 1.97792969 -8.33251953 1.70898438 C-7.60661621 1.50595703 -6.88071289 1.30292969 -6.1328125 1.09375 C-5.01737061 0.77954102 -5.01737061 0.77954102 -3.87939453 0.45898438 C-2 0 -2 0 0 0 Z " fill="#8E9EB4" transform="translate(106,119)"/>
<path d="M0 0 C2.92567857 2.78761284 3.55926432 5.59097799 4.1875 9.5 C4.34605469 10.4384375 4.50460938 11.376875 4.66796875 12.34375 C5 15 5 15 5 19 C8.96 18.34 12.92 17.68 17 17 C16.505 18.485 16.505 18.485 16 20 C13.71656402 20.94850418 11.41923272 21.52146978 9.03125 22.15625 C8.3609375 22.4346875 7.690625 22.713125 7 23 C6.505 24.485 6.505 24.485 6 26 C7.09699219 25.6390625 8.19398437 25.278125 9.32421875 24.90625 C10.77852316 24.43711954 12.23295715 23.96839065 13.6875 23.5 C14.40873047 23.26152344 15.12996094 23.02304688 15.87304688 22.77734375 C19.69407657 21.55601006 22.93442056 20.67924423 27 21 C27.495 22.98 27.495 22.98 28 25 C26.7625 25.0825 25.525 25.165 24.25 25.25 C19.0837304 25.79942867 14.4674646 27.39359489 9.6015625 29.16015625 C7 30 7 30 4 30 C3.1617875 26.06352226 2.33026745 22.12566049 1.5 18.1875 C1.26152344 17.06794922 1.02304688 15.94839844 0.77734375 14.79492188 C0.55175781 13.72177734 0.32617188 12.64863281 0.09375 11.54296875 C-0.11572266 10.55321045 -0.32519531 9.56345215 -0.54101562 8.54370117 C-1 6 -1 6 -1 3 C-1.86278564 3.21205078 -2.72557129 3.42410156 -3.61450195 3.64257812 C-6.81745337 4.42804893 -10.02112727 5.2104276 -13.2253418 5.99072266 C-14.61171187 6.32900409 -15.99778292 6.66851352 -17.38354492 7.00927734 C-19.37601525 7.4990067 -21.36952095 7.98430278 -23.36328125 8.46875 C-24.56251221 8.76201172 -25.76174316 9.05527344 -26.99731445 9.35742188 C-30 10 -30 10 -33 10 C-33 12.31 -33 14.62 -33 17 C-33.33 17 -33.66 17 -34 17 C-34.33 22.61 -34.66 28.22 -35 34 C-36.32 33.67 -37.64 33.34 -39 33 C-38.505 32.505 -38.505 32.505 -38 32 C-37.86679702 30.31707115 -37.79661159 28.62905811 -37.75390625 26.94140625 C-37.72103516 25.91595703 -37.68816406 24.89050781 -37.65429688 23.83398438 C-37.59321146 21.65700419 -37.53590563 19.47991458 -37.48242188 17.30273438 C-37.44826172 16.27599609 -37.41410156 15.24925781 -37.37890625 14.19140625 C-37.3538501 13.24467041 -37.32879395 12.29793457 -37.30297852 11.32250977 C-37 9 -37 9 -35 7 C-32.82724551 6.3488135 -30.62711585 5.78780608 -28.41796875 5.2734375 C-27.76677567 5.12089508 -27.11558258 4.96835266 -26.44465637 4.81118774 C-25.06605042 4.49007629 -23.68660044 4.17257031 -22.30639648 3.85839844 C-20.20386402 3.37873324 -18.10483305 2.88560317 -16.00585938 2.390625 C-14.66425066 2.07991558 -13.32245915 1.76999419 -11.98046875 1.4609375 C-10.76254639 1.18040527 -9.54462402 0.89987305 -8.28979492 0.61083984 C-5.39676429 0.07367007 -2.92507494 -0.26232971 0 0 Z " fill="#0D1016" transform="translate(106,78)"/>
<path d="M0 0 C3.59336267 5.77115823 1.95027408 12.2979334 0.53125 18.71484375 C0.10015996 20.26486604 -0.40758864 21.79342078 -0.9375 23.3125 C-7.3725 23.8075 -7.3725 23.8075 -13.9375 24.3125 C-13.6075 16.0625 -13.2775 7.8125 -12.9375 -0.6875 C-7.79609119 -1.9728522 -4.71564534 -2.70898775 0 0 Z " fill="#8D9EB4" transform="translate(128.9375,115.6875)"/>
<path d="M0 0 C5.00414235 0.12481988 8.74848069 0.43615128 12.75 3.625 C15.22418236 5.69835546 15.22418236 5.69835546 18.375 5.9375 C19.24125 5.628125 20.1075 5.31875 21 5 C22.60095572 4.63159056 24.20547452 4.27846016 25.8125 3.9375 C27.20844918 3.62551788 28.60432165 3.31319144 30 3 C29 5 29 5 28 6 C28.020625 7.11375 28.04125 8.2275 28.0625 9.375 C28 13 28 13 26 16 C25.36707617 18.11280345 25.36707617 18.11280345 25 20 C25 19.01 25 18.02 25 17 C19.8306511 17.40556131 19.8306511 17.40556131 15 19 C14.47921875 18.42765625 13.9584375 17.8553125 13.421875 17.265625 C10.60818393 14.63346238 7.54487664 12.70520152 4.25 10.75 C3.64800781 10.38648438 3.04601563 10.02296875 2.42578125 9.6484375 C0.95361969 8.76046703 -0.5227674 7.87950842 -2 7 C-1.34 4.69 -0.68 2.38 0 0 Z " fill="#0E1117" transform="translate(37,124)"/>
<path d="M0 0 C4.53612592 0 6.51595886 0.52612352 9.7109375 3.69921875 C10.53464844 4.68341797 10.53464844 4.68341797 11.375 5.6875 C12.28378906 6.75291016 12.28378906 6.75291016 13.2109375 7.83984375 C14.33397758 9.19582883 15.44529313 10.56170225 16.5390625 11.94140625 C19.05206496 15.05242266 21.19279027 17.29865103 24.75 19.1875 C28.10994537 21.06131569 28.5890423 21.65935015 30 25 C28.72125 25.103125 27.4425 25.20625 26.125 25.3125 C21.59299539 25.80012075 17.48133215 26.94666918 13.1640625 28.37890625 C11 29 11 29 8 29 C8.33 27.68 8.66 26.36 9 25 C11.97 24.34 14.94 23.68 18 23 C18 22.34 18 21.68 18 21 C14.37 21.33 10.74 21.66 7 22 C6.82984375 20.99839844 6.6596875 19.99679688 6.484375 18.96484375 C4.69199224 8.94602539 4.69199224 8.94602539 0 0 Z " fill="#212326" transform="translate(104,75)"/>
<path d="M0 0 C0.22952027 9.93312708 -0.2135234 19.17437872 -2 29 C-5.96 28.67 -9.92 28.34 -14 28 C-13.71880143 25.37348569 -13.42556162 22.74930665 -13.125 20.125 C-13.04636719 19.37863281 -12.96773438 18.63226563 -12.88671875 17.86328125 C-12.2265625 12.2265625 -12.2265625 12.2265625 -10 10 C-9.53993654 7.79749008 -9.53993654 7.79749008 -9.375 5.375 C-9.26285156 4.14910156 -9.26285156 4.14910156 -9.1484375 2.8984375 C-9.09945312 2.27195313 -9.05046875 1.64546875 -9 1 C-5.92677456 0.08941469 -3.19902639 -0.08886184 0 0 Z " fill="#8594A8" transform="translate(77,128)"/>
<path d="M0 0 C2.90610361 -0.0675838 5.58287316 -0.08556448 8.4375 0.5 C11.14777919 1.12135959 11.14777919 1.12135959 14.5625 0.9375 C18 1 18 1 22 3 C22 7.62 22 12.24 22 17 C23.65 17.66 25.3 18.32 27 19 C28.97628815 20.09315121 30.93394212 21.22044869 32.875 22.375 C34.44121094 23.30119141 34.44121094 23.30119141 36.0390625 24.24609375 C37.01617187 24.82488281 37.99328125 25.40367188 39 26 C41.32797861 27.34306458 43.66322237 28.67228544 46 30 C45.505 31.485 45.505 31.485 45 33 C37.43852682 29.31484383 30.03321672 25.64192304 23 21 C23 21.66 23 22.32 23 23 C24.24716797 23.59748047 24.24716797 23.59748047 25.51953125 24.20703125 C26.60621094 24.73683594 27.69289063 25.26664063 28.8125 25.8125 C29.89144531 26.33457031 30.97039062 26.85664062 32.08203125 27.39453125 C34.56579702 28.76110117 36.1799378 29.87340101 38 32 C34.52674819 33.1577506 31.63932552 33.06866652 28 33 C28 32.01 28 31.02 28 30 C25.69 28.68 23.38 27.36 21 26 C21 27.32 21 28.64 21 30 C18.5 31.75 18.5 31.75 16 33 C16 31.35 16 29.7 16 28 C16.99 28 17.98 28 19 28 C18.505 16.615 18.505 16.615 18 5 C16.164375 5.061875 14.32875 5.12375 12.4375 5.1875 C7.1052371 5.20643111 3.65307019 4.53803829 -1 2 C-0.67 1.34 -0.34 0.68 0 0 Z " fill="#08090B" transform="translate(62,44)"/>
<path d="M0 0 C2.73666158 2.47182336 2.97196041 3.80372284 3.5 7.5 C3 11 3 11 0.8125 13.3125 C-1.75431861 14.85259116 -4.17275152 16.03065766 -7 17 C-7 18.32 -7 19.64 -7 21 C-9.64 21 -12.28 21 -15 21 C-14.68861865 17.7220036 -14.32674163 16.31932973 -11.93359375 13.98046875 C-11.10988281 13.38878906 -10.28617188 12.79710937 -9.4375 12.1875 C-8.19806641 11.28064453 -8.19806641 11.28064453 -6.93359375 10.35546875 C-5.97646484 9.68451172 -5.97646484 9.68451172 -5 9 C-5.57344937 6.13275314 -5.8614515 5.1385485 -8 3 C-11.97357645 2.47018981 -13.54170381 2.68118526 -16.875 5 C-17.57625 5.66 -18.2775 6.32 -19 7 C-20.32 6.34 -21.64 5.68 -23 5 C-23 1 -23 1 -21.75 -0.6875 C-15.53777154 -5.34667135 -6.24717111 -3.49841582 0 0 Z " fill="#E6E725" transform="translate(82,7)"/>
<path d="M0 0 C1.99954746 -0.04254356 4.00041636 -0.04080783 6 0 C6.33 0.33 6.66 0.66 7 1 C8.85287502 1.07226502 10.70833878 1.0838122 12.5625 1.0625 C13.57441406 1.05347656 14.58632812 1.04445312 15.62890625 1.03515625 C16.41136719 1.02355469 17.19382812 1.01195312 18 1 C18 1.66 18 2.32 18 3 C16.35 3.33 14.7 3.66 13 4 C13.48895752 4.55719727 13.97791504 5.11439453 14.48168945 5.68847656 C16.26570129 8.40451194 16.35174944 9.77103038 16.29296875 12.984375 C16.28330078 13.91894531 16.27363281 14.85351562 16.26367188 15.81640625 C16.23853516 16.78449219 16.21339844 17.75257812 16.1875 18.75 C16.16719727 20.22533203 16.16719727 20.22533203 16.14648438 21.73046875 C16.11118726 24.15420415 16.06188054 26.57682145 16 29 C14.68 29 13.36 29 12 29 C12.02618408 28.40985107 12.05236816 27.81970215 12.0793457 27.21166992 C12.18329224 24.53721755 12.2483128 21.86318935 12.3125 19.1875 C12.35439453 18.25873047 12.39628906 17.32996094 12.43945312 16.37304688 C12.48542018 13.82647203 12.46836456 11.50428138 12 9 C8.83177554 6.01717938 7.38658841 6 3 6 C3.66 6.33 4.32 6.66 5 7 C5 13.93 5 20.86 5 28 C3.35 28 1.7 28 0 28 C0 20.74 0 13.48 0 6 C-0.66 5.67 -1.32 5.34 -2 5 C-1.34 4.01 -0.68 3.02 0 2 C0 2.66 0 3.32 0 4 C0.66 3.67 1.32 3.34 2 3 C2 2.34 2 1.68 2 1 C1.34 0.67 0.68 0.34 0 0 Z " fill="#CECDCD" transform="translate(61,47)"/>
<path d="M0 0 C2.11577396 3.79652897 3.33831227 7.87063006 4.625 12 C4.96917969 13.06734375 4.96917969 13.06734375 5.3203125 14.15625 C6.40851115 17.6281219 7 20.32748565 7 24 C-10.97058824 31.25735294 -10.97058824 31.25735294 -20 29 C-20.33 28.01 -20.66 27.02 -21 26 C-20.01 26 -19.02 26 -18 26 C-18 25.34 -18 24.68 -18 24 C-15.89748139 23.32815382 -13.79292237 22.66269032 -11.6875 22 C-10.51574219 21.62875 -9.34398437 21.2575 -8.13671875 20.875 C-5 20 -5 20 -2 20 C-2.02320312 18.72382812 -2.04640625 17.44765625 -2.0703125 16.1328125 C-2.08906829 14.4635475 -2.10726869 12.7942762 -2.125 11.125 C-2.14175781 10.28324219 -2.15851563 9.44148438 -2.17578125 8.57421875 C-2.18222656 7.76855469 -2.18867187 6.96289062 -2.1953125 6.1328125 C-2.20578613 5.38918457 -2.21625977 4.64555664 -2.22705078 3.87939453 C-2 2 -2 2 0 0 Z " fill="#0F1317" transform="translate(73,92)"/>
<path d="M0 0 C0.99 0 1.98 0 3 0 C3.46651057 20.88930649 3.46651057 20.88930649 1 26 C-1.9053282 28.06725276 -3.70328421 28.91757008 -7 30 C-8.09699219 30.39574219 -9.19398437 30.79148438 -10.32421875 31.19921875 C-12.73588012 32.06741684 -15.15263994 32.92157916 -17.57421875 33.76171875 C-21.25899409 35.09361588 -24.79202601 36.61914019 -28.328125 38.30078125 C-30 39 -30 39 -32 39 C-31.34 29.1 -30.68 19.2 -30 9 C-29.01 9 -28.02 9 -27 9 C-27 16.92 -27 24.84 -27 33 C-18.62295424 30.79150612 -10.274691 28.57002168 -2 26 C-2.01160156 25.03320312 -2.02320312 24.06640625 -2.03515625 23.0703125 C-2.1440678 7.3559322 -2.1440678 7.3559322 -1 1 C-0.67 0.67 -0.34 0.34 0 0 Z " fill="#A9AEB6" transform="translate(110,117)"/>
<path d="M0 0 C0 6.6 0 13.2 0 20 C-12.75 24 -12.75 24 -15 24 C-14.7298237 20.6583458 -14.37120492 17.33179054 -14 14 C-13.93554688 13.0925 -13.87109375 12.185 -13.8046875 11.25 C-13.49237707 8.55932549 -13.14460978 6.45978885 -12 4 C-8.3079679 1.2398681 -4.58869157 0 0 0 Z " fill="#B0BAC7" transform="translate(69,90)"/>
<path d="M0 0 C0.99 0.33 1.98 0.66 3 1 C3 1.99 3 2.98 3 4 C2.01 4 1.02 4 0 4 C-0.433125 5.2065625 -0.433125 5.2065625 -0.875 6.4375 C-2 9 -2 9 -4 10 C-2.49090237 14.03616645 -0.14723391 15.49380856 3.4375 17.75 C8.52550516 21.02650511 13.44018728 24.45012729 18.30859375 28.04296875 C21.87742894 30.63801437 25.53147866 33.10192196 29.19921875 35.5546875 C29.79347656 36.03164062 30.38773438 36.50859375 31 37 C31 37.66 31 38.32 31 39 C28.69 38.34 26.38 37.68 24 37 C23.67 38.98 23.34 40.96 23 43 C22.67 43 22.34 43 22 43 C22.04833984 42.12988281 22.04833984 42.12988281 22.09765625 41.2421875 C22.04204173 37.49747659 21.85832875 34.94806312 19.28125 32.1015625 C13.78570939 28.134711 8.70544337 27.02799768 2 27 C2 26.34 2 25.68 2 25 C3.32 24.67 4.64 24.34 6 24 C4.2758698 22.70161824 2.54546768 21.41156253 0.8125 20.125 C-0.63189453 19.04605469 -0.63189453 19.04605469 -2.10546875 17.9453125 C-4.72130833 16.18729885 -7.07957756 15.11974746 -10 14 C-10.66 13.34 -11.32 12.68 -12 12 C-12 11.01 -12 10.02 -12 9 C-10.948125 8.62875 -9.89625 8.2575 -8.8125 7.875 C-4.62191859 6.11188953 -2.65950458 3.62659715 0 0 Z " fill="#12171D" transform="translate(13,87)"/>
<path d="M0 0 C1.65 0 3.3 0 5 0 C5.66 2.31 6.32 4.62 7 7 C4.33333333 7.66666667 1.66666667 8.33333333 -1 9 C-1 12.96 -1 16.92 -1 21 C-1.99 21.495 -1.99 21.495 -3 22 C-3 21.34 -3 20.68 -3 20 C-3.87140625 20.25394531 -4.7428125 20.50789063 -5.640625 20.76953125 C-11.59842756 22.49110407 -17.56053603 24.18784499 -23.5625 25.75 C-24.95662109 26.11351562 -24.95662109 26.11351562 -26.37890625 26.484375 C-28.991061 26.99824151 -31.34548834 27.09600404 -34 27 C-35.32 29.97 -36.64 32.94 -38 36 C-39.59157575 32.8168485 -38.77242108 30.38676935 -38 27 C-34.97293906 24.07332289 -31.83383741 23.19970242 -27.80859375 22.17578125 C-26.02098633 21.71655273 -26.02098633 21.71655273 -24.19726562 21.24804688 C-22.33618164 20.78495117 -22.33618164 20.78495117 -20.4375 20.3125 C-19.19291016 19.99216797 -17.94832031 19.67183594 -16.66601562 19.34179688 C-7.44363006 17 -7.44363006 17 -4 17 C-4 13.04 -4 9.08 -4 5 C-3.01 4.67 -2.02 4.34 -1 4 C-0.26676204 1.98491642 -0.26676204 1.98491642 0 0 Z " fill="#1C1E21" transform="translate(57,44)"/>
<path d="M0 0 C1.68375165 0.62225605 3.35767228 1.27544365 5 2 C4.01 2.495 4.01 2.495 3 3 C3 9.6 3 16.2 3 23 C3.66 23.33 4.32 23.66 5 24 C3 27 3 27 -0.375 27.875 C-4 28 -4 28 -6.4375 26.5625 C-6.953125 26.046875 -7.46875 25.53125 -8 25 C-7.01 25 -6.02 25 -5 25 C-4.01956036 22.05868109 -3.88378798 20.17498335 -3.90234375 17.11328125 C-3.90556641 16.17548828 -3.90878906 15.23769531 -3.91210938 14.27148438 C-3.92048828 13.29501953 -3.92886719 12.31855469 -3.9375 11.3125 C-3.94426758 9.83040039 -3.94426758 9.83040039 -3.95117188 8.31835938 C-3.96295697 5.87884526 -3.97940989 3.43945311 -4 1 C-5.32 0.67 -6.64 0.34 -8 0 C-5.08249759 -1.45875121 -3.14485878 -0.67830287 0 0 Z " fill="#232323" transform="translate(70,53)"/>
<path d="M0 0 C0 0.66 0 1.32 0 2 C0.66 2.33 1.32 2.66 2 3 C1.01 3.33 0.02 3.66 -1 4 C-1.66 12.25 -2.32 20.5 -3 29 C-14.3574124 34.06145553 -14.3574124 34.06145553 -17.328125 33.77734375 C-19 33 -19 33 -20 31 C-18.23141309 30.32739649 -16.46003984 29.66211605 -14.6875 29 C-13.70136719 28.62875 -12.71523437 28.2575 -11.69921875 27.875 C-9 27 -9 27 -6 27 C-6.01160156 26.16597656 -6.02320312 25.33195312 -6.03515625 24.47265625 C-6.08799793 17.88254338 -5.88555068 11.53093626 -5 5 C-5.6290625 5.19335938 -6.258125 5.38671875 -6.90625 5.5859375 C-12.24216385 7.2092125 -17.57759268 8.69460565 -23 10 C-23 9.34 -23 8.68 -23 8 C-23.99 7.67 -24.98 7.34 -26 7 C-25.06933716 6.73521851 -25.06933716 6.73521851 -24.11987305 6.46508789 C-21.30888435 5.66491784 -18.49818942 4.86372066 -15.6875 4.0625 C-14.71103516 3.78470703 -13.73457031 3.50691406 -12.72851562 3.22070312 C-11.79072266 2.95322266 -10.85292969 2.68574219 -9.88671875 2.41015625 C-8.59060669 2.04096069 -8.59060669 2.04096069 -7.26831055 1.66430664 C-1.58544653 0 -1.58544653 0 0 0 Z " fill="#00030A" transform="translate(111,114)"/>
<path d="M0 0 C0.66 0 1.32 0 2 0 C1.98195313 1.18335937 1.96390625 2.36671875 1.9453125 3.5859375 C1.97466946 12.09912323 1.97466946 12.09912323 5.27539062 19.68896484 C8.52250522 22.65119109 12.2852873 24.77726784 16.11181641 26.90429688 C19.11528162 28.64719213 21.79781366 30.7106515 24.5625 32.8125 C25.49191406 33.49957031 26.42132813 34.18664062 27.37890625 34.89453125 C30.13428484 37.10786815 32.61527504 39.39103328 35 42 C35 42.66 35 43.32 35 44 C31.676148 42.47303319 28.87567111 40.54725611 25.9375 38.375 C24.97070312 37.6634375 24.00390625 36.951875 23.0078125 36.21875 C22.01523437 35.4865625 21.02265625 34.754375 20 34 C18.10507898 32.623743 16.2092711 31.24870609 14.3125 29.875 C13.41402344 29.21757812 12.51554687 28.56015625 11.58984375 27.8828125 C9.92700362 26.67393023 8.25327413 25.47980894 6.56640625 24.3046875 C5.84324219 23.79164063 5.12007812 23.27859375 4.375 22.75 C3.74335938 22.31171875 3.11171875 21.8734375 2.4609375 21.421875 C-0.23271202 18.8002482 -0.00618227 15.75369821 -0.09765625 12.109375 C-0.09105099 10.65621776 -0.07918727 9.20307644 -0.0625 7.75 C-0.05798828 7.00492187 -0.05347656 6.25984375 -0.04882812 5.4921875 C-0.03709246 3.6614236 -0.0191585 1.83070127 0 0 Z " fill="#13151A" transform="translate(10,112)"/>
<path d="M0 0 C7.18191306 1.24902836 11.54609188 5.38656013 17 10 C18.3254612 11.010411 19.65599167 12.01439389 21 13 C19.02 13 17.04 13 15 13 C15 13.66 15 14.32 15 15 C18.3 15 21.6 15 25 15 C25 15.33 25 15.66 25 16 C21.04 16 17.08 16 13 16 C12.67 17.32 12.34 18.64 12 20 C12 17.69 12 15.38 12 13 C11.34 13 10.68 13 10 13 C9.67 14.32 9.34 15.64 9 17 C8.938125 16.4225 8.87625 15.845 8.8125 15.25 C7.6775227 12.10698594 5.62628394 11.00097824 3 9 C0.73831953 6.58234157 0.03976474 5.58321624 -0.1875 2.25 C-0.125625 1.5075 -0.06375 0.765 0 0 Z " fill="#202328" transform="translate(0,99)"/>
<path d="M0 0 C5.60625406 3.00563431 11.18661116 6.05492007 16.6875 9.25 C17.51636719 9.72953125 18.34523437 10.2090625 19.19921875 10.703125 C19.79347656 11.13109375 20.38773438 11.5590625 21 12 C21 12.66 21 13.32 21 14 C16.19516784 15.14216336 11.38965985 16.28142168 6.58349609 17.41796875 C4.94788919 17.80518691 3.31247134 18.1932045 1.67724609 18.58203125 C-0.67040802 19.14011519 -3.0187224 19.69534007 -5.3671875 20.25 C-6.10057343 20.42499023 -6.83395935 20.59998047 -7.58956909 20.78027344 C-12.77225659 22 -12.77225659 22 -15 22 C-15 21.01 -15 20.02 -15 19 C-1.14 15.535 -1.14 15.535 13 12 C13 11.34 13 10.68 13 10 C8.71 7.69 4.42 5.38 0 3 C0 2.01 0 1.02 0 0 Z " fill="#8B96A6" transform="translate(84,64)"/>
<path d="M0 0 C0.99 0.33 1.98 0.66 3 1 C3 8.26 3 15.52 3 23 C1.68 23.33 0.36 23.66 -1 24 C-1.33 22.02 -1.66 20.04 -2 18 C-2.66 18 -3.32 18 -4 18 C-4 18.99 -4 19.98 -4 21 C-6.475 20.01 -6.475 20.01 -9 19 C-8.01 18.01 -7.02 17.02 -6 16 C-6.33 15.34 -6.66 14.68 -7 14 C-5.68 13.67 -4.36 13.34 -3 13 C-2.95101562 12.14535156 -2.90203125 11.29070313 -2.8515625 10.41015625 C-2.73941406 8.75306641 -2.73941406 8.75306641 -2.625 7.0625 C-2.55539063 5.96035156 -2.48578125 4.85820313 -2.4140625 3.72265625 C-2.27742188 2.82417969 -2.14078125 1.92570312 -2 1 C-1.34 0.67 -0.68 0.34 0 0 Z " fill="#363737" transform="translate(58,52)"/>
<path d="M0 0 C3.6170984 1.28328361 6.11752682 2.82139013 9.0625 5.25 C13.17302059 8.12458704 15.65069226 8.22066501 20.5625 7.375 C22.3835988 6.95212312 24.20010022 6.50555561 26 6 C26 7.65 26 9.3 26 11 C21.58582444 13.42927783 17.95774718 14.1383347 13 13 C8.22017337 10.22543045 3.90814509 6.90814509 0 3 C0 2.01 0 1.02 0 0 Z " fill="#A7B1BE" transform="translate(38,125)"/>
<path d="M0 0 C4.25661311 1.52021897 5.59183547 4.31692484 8 8 C9.05959022 9.10656712 10.14354304 10.19029475 11.25 11.25 C12.1575 12.1575 13.065 13.065 14 14 C14 14.66 14 15.32 14 16 C10.12315913 17.19287411 7.08378077 18 3 18 C2.49645133 15.56318413 1.99703244 13.12564561 1.5 10.6875 C1.35691406 9.99720703 1.21382813 9.30691406 1.06640625 8.59570312 C0.47374956 5.67475227 0 2.98891878 0 0 Z " fill="#BBC4D3" transform="translate(108,79)"/>
<path d="M0 0 C2.31 0 4.62 0 7 0 C6.45118943 6.35219042 5.83488387 12.67873638 5 19 C3.0625 19.5625 3.0625 19.5625 1 20 C0 19 0 19 -0.11352539 17.14233398 C-0.10828857 16.35157471 -0.10305176 15.56081543 -0.09765625 14.74609375 C-0.09443359 13.89208984 -0.09121094 13.03808594 -0.08789062 12.15820312 C-0.07951172 11.26037109 -0.07113281 10.36253906 -0.0625 9.4375 C-0.05798828 8.53580078 -0.05347656 7.63410156 -0.04882812 6.70507812 C-0.03700225 4.46998686 -0.0205222 2.23502563 0 0 Z " fill="#B5BDCB" transform="translate(55,141)"/>
<path d="M0 0 C3.05507432 1.27886832 5.50529826 2.83069414 8 5 C7.67 5.66 7.34 6.32 7 7 C6.0925 6.690625 5.185 6.38125 4.25 6.0625 C-2.23146582 3.94355925 -8.22253452 3.03554073 -14.9375 4.75 C-17.37406109 6.22670369 -18.15434492 7.29390375 -19 10 C-18.67 10.66 -18.34 11.32 -18 12 C-19.65 12 -21.3 12 -23 12 C-23.75 10.3125 -23.75 10.3125 -24 8 C-18.57511063 -0.89681857 -9.47423522 -1.20581176 0 0 Z " fill="#1B190A" transform="translate(78,1)"/>
<path d="M0 0 C0.5775 0.804375 1.155 1.60875 1.75 2.4375 C3.98126893 4.97866739 4.74456771 5.65120368 8 6 C8.25 13.625 8.25 13.625 6 17 C5.34 17 4.68 17 4 17 C4 16.34 4 15.68 4 15 C2.329375 15.2784375 2.329375 15.2784375 0.625 15.5625 C-3 16 -3 16 -5 15 C-4.67 13.68 -4.34 12.36 -4 11 C-2.02 10.67 -0.04 10.34 2 10 C1.16666667 7.83333333 1.16666667 7.83333333 -1 7 C-1.75 4.5625 -1.75 4.5625 -2 2 C-1.34 1.34 -0.68 0.68 0 0 Z " fill="#1A1C1F" transform="translate(134,100)"/>
<path d="M0 0 C-1.485 1.98 -1.485 1.98 -3 4 C-1.68 4.66 -0.36 5.32 1 6 C1 5.01 1 4.02 1 3 C1.99 2.67 2.98 2.34 4 2 C4 4.31 4 6.62 4 9 C4.99 8.67 5.98 8.34 7 8 C9.33299825 7.96045766 11.66708189 7.95598268 14 8 C13.01 8.495 13.01 8.495 12 9 C12 9.66 12 10.32 12 11 C6.00358917 12.6541823 2.68819182 12.18733489 -2.64013672 9.20898438 C-5.4639053 7.52490801 -8.24322583 5.79209928 -11 4 C-10.67 3.01 -10.34 2.02 -10 1 C-6.76421296 -0.31828361 -3.44785988 -0.07836045 0 0 Z " fill="#0F1218" transform="translate(53,67)"/>
<path d="M0 0 C3.51907922 0.62668534 5.74930457 2.0361398 8.625 4.125 C13.08341419 7.34275429 17.60114897 10.45184938 22.1640625 13.51953125 C22.76992188 14.00808594 23.37578125 14.49664062 24 15 C24 15.66 24 16.32 24 17 C21.69 16.34 19.38 15.68 17 15 C16.67 16.98 16.34 18.96 16 21 C15.67 21 15.34 21 15 21 C15.04833984 20.12988281 15.04833984 20.12988281 15.09765625 19.2421875 C15.04204173 15.49747659 14.85832875 12.94806312 12.28125 10.1015625 C6.78570939 6.134711 1.70544337 5.02799768 -5 5 C-5 4.34 -5 3.68 -5 3 C-3.35 2.67 -1.7 2.34 0 2 C0 1.34 0 0.68 0 0 Z " fill="#06090E" transform="translate(20,109)"/>
<path d="M0 0 C0.99 0 1.98 0 3 0 C3.19865739 8.89543642 3.33447255 17.32910197 1 26 C0.01 26.33 -0.98 26.66 -2 27 C-2.21637427 7.62248213 -2.21637427 7.62248213 -1 1 C-0.67 0.67 -0.34 0.34 0 0 Z " fill="#AEB5C0" transform="translate(110,117)"/>
<path d="M0 0 C0.33 0 0.66 0 1 0 C1.02904864 3.91665108 1.04681517 7.8332744 1.0625 11.75 C1.07087891 12.86117187 1.07925781 13.97234375 1.08789062 15.1171875 C1.09111328 16.18710938 1.09433594 17.25703125 1.09765625 18.359375 C1.10289307 19.34389648 1.10812988 20.32841797 1.11352539 21.34277344 C1.01159103 23.72869514 0.68303357 25.72164581 0 28 C1.65 27.67 3.3 27.34 5 27 C4 30 4 30 1.8125 31.1875 C-1.25390311 32.07334979 -3.82438155 32.14770318 -7 32 C-7 31.01 -7 30.02 -7 29 C-5.68 29 -4.36 29 -3 29 C-2.94465088 28.15703369 -2.88930176 27.31406738 -2.83227539 26.44555664 C-2.6253495 23.32745699 -2.41430883 20.2096715 -2.20043945 17.09204102 C-2.1086091 15.74091591 -2.01843502 14.38967719 -1.92993164 13.03833008 C-1.80266594 11.09948332 -1.66901017 9.16105931 -1.53515625 7.22265625 C-1.456604 6.05484619 -1.37805176 4.88703613 -1.29711914 3.68383789 C-1 1 -1 1 0 0 Z " fill="#04050A" transform="translate(78,128)"/>
<path d="M0 0 C0 0.66 0 1.32 0 2 C-0.66 2 -1.32 2 -2 2 C-2 9.59 -2 17.18 -2 25 C1.465 24.505 1.465 24.505 5 24 C4.67 24.99 4.34 25.98 4 27 C1.03 27.33 -1.94 27.66 -5 28 C-5.11039334 19.59784035 -4.95458649 11.35263176 -4 3 C-4.99 2.67 -5.98 2.34 -7 2 C-4 0 -4 0 0 0 Z " fill="#000108" transform="translate(88,122)"/>
<path d="M0 0 C2.50139974 5.00279948 4.13101251 8.39453625 4 14 C1.44165429 14.86881541 -1.12042461 15.7202133 -3.6875 16.5625 C-4.40873047 16.80935547 -5.12996094 17.05621094 -5.87304688 17.31054688 C-9.94352832 18.63020068 -12.78027933 19.38992772 -17 18 C-17 17.34 -17 16.68 -17 16 C-14.91891315 15.32635339 -12.8350329 14.66133202 -10.75 14 C-9.58984375 13.62875 -8.4296875 13.2575 -7.234375 12.875 C-4 12 -4 12 0 12 C0 8.04 0 4.08 0 0 Z " fill="#AEAFB2" transform="translate(72,100)"/>
<path d="M0 0 C0 0.66 0 1.32 0 2 C0.66 2.33 1.32 2.66 2 3 C1.01 3.33 0.02 3.66 -1 4 C-1.33 7.3 -1.66 10.6 -2 14 C-2.33 14 -2.66 14 -3 14 C-3.144375 12.88625 -3.28875 11.7725 -3.4375 10.625 C-3.78372035 7.17857953 -3.78372035 7.17857953 -5 5 C-5.6290625 5.19335938 -6.258125 5.38671875 -6.90625 5.5859375 C-12.24216385 7.2092125 -17.57759268 8.69460565 -23 10 C-23 9.34 -23 8.68 -23 8 C-23.99 7.67 -24.98 7.34 -26 7 C-25.06933716 6.73521851 -25.06933716 6.73521851 -24.11987305 6.46508789 C-21.30888435 5.66491784 -18.49818942 4.86372066 -15.6875 4.0625 C-14.71103516 3.78470703 -13.73457031 3.50691406 -12.72851562 3.22070312 C-11.79072266 2.95322266 -10.85292969 2.68574219 -9.88671875 2.41015625 C-8.59060669 2.04096069 -8.59060669 2.04096069 -7.26831055 1.66430664 C-1.58544653 0 -1.58544653 0 0 0 Z " fill="#121721" transform="translate(111,114)"/>
<path d="M0 0 C1.8125 1.1875 1.8125 1.1875 3 3 C3.3125 5.5625 3.3125 5.5625 3 8 C1 10 1 10 -2.5 10.25 C-6 10 -6 10 -8 8 C-7.75 4.4375 -7.75 4.4375 -7 1 C-4.45132831 -0.27433584 -2.82594567 -0.27570202 0 0 Z " fill="#191912" transform="translate(73,32)"/>
<path d="M0 0 C0.66 0.33 1.32 0.66 2 1 C1 4 1 4 -2.2109375 5.71875 C-3.59321036 6.32576122 -4.98169008 6.91876997 -6.375 7.5 C-7.09365234 7.80752197 -7.81230469 8.11504395 -8.55273438 8.43188477 C-14.24168493 10.81137334 -19.97487374 12.65966471 -26 14 C-26.33 13.01 -26.66 12.02 -27 11 C-26.14019531 10.70867187 -25.28039062 10.41734375 -24.39453125 10.1171875 C-16.84792125 7.50015153 -9.71446259 4.58789245 -2.546875 1.0390625 C-1.70640625 0.69617188 -0.8659375 0.35328125 0 0 Z " fill="#151619" transform="translate(109,143)"/>
<path d="M0 0 C0.66 1.65 1.32 3.3 2 5 C0.4447088 5.70365602 -1.11964827 6.38729378 -2.6875 7.0625 C-3.55761719 7.44535156 -4.42773438 7.82820313 -5.32421875 8.22265625 C-8.32213864 9.0935848 -10.03280153 8.85006226 -13 8 C-13 7.01 -13 6.02 -13 5 C-14.32 4.67 -15.64 4.34 -17 4 C-14.91891315 3.32635339 -12.8350329 2.66133202 -10.75 2 C-9.58984375 1.62875 -8.4296875 1.2575 -7.234375 0.875 C-4 0 -4 0 0 0 Z " fill="#909FB5" transform="translate(132,102)"/>
<path d="M0 0 C2 2 2 2 2.22705078 4.15478516 C2.21657715 5.02409668 2.20610352 5.8934082 2.1953125 6.7890625 C2.18886719 7.73007812 2.18242188 8.67109375 2.17578125 9.640625 C2.15902344 10.62546875 2.14226562 11.6103125 2.125 12.625 C2.11597656 13.61757812 2.10695313 14.61015625 2.09765625 15.6328125 C2.07404116 18.08878134 2.04110799 20.54427168 2 23 C0.68 23 -0.64 23 -2 23 C-2.0580476 19.72924117 -2.09361165 16.45861476 -2.125 13.1875 C-2.14175781 12.25873047 -2.15851563 11.32996094 -2.17578125 10.37304688 C-2.18222656 9.48037109 -2.18867187 8.58769531 -2.1953125 7.66796875 C-2.20578613 6.84578857 -2.21625977 6.0236084 -2.22705078 5.17651367 C-2 3 -2 3 0 0 Z " fill="#CBCBCB" transform="translate(75,53)"/>
<path d="M0 0 C1.32 0.33 2.64 0.66 4 1 C4 7.6 4 14.2 4 21 C2.68 20.67 1.36 20.34 0 20 C0 13.4 0 6.8 0 0 Z " fill="#B9B9B9" transform="translate(68,55)"/>
<path d="M0 0 C1.65 0 3.3 0 5 0 C5.66 2.31 6.32 4.62 7 7 C3 8 3 8 -1 9 C-1 10.98 -1 12.96 -1 15 C-1.66 15 -2.32 15 -3 15 C-3 15.99 -3 16.98 -3 18 C-4.32 17.67 -5.64 17.34 -7 17 C-6.01 17 -5.02 17 -4 17 C-4 13.04 -4 9.08 -4 5 C-3.01 4.67 -2.02 4.34 -1 4 C-0.26676204 1.98491642 -0.26676204 1.98491642 0 0 Z " fill="#262626" transform="translate(57,44)"/>
<path d="M0 0 C3.75622534 0.67235537 6.55960182 2.36243138 9.8125 4.3125 C11.39224609 5.25222656 11.39224609 5.25222656 13.00390625 6.2109375 C14.48697266 7.09652344 14.48697266 7.09652344 16 8 C18.32730017 9.34431696 20.66318794 10.67226587 23 12 C22.67 12.99 22.34 13.98 22 15 C5.49384207 6.95556629 5.49384207 6.95556629 0 3 C0 2.01 0 1.02 0 0 Z " fill="#14161C" transform="translate(85,62)"/>
<path d="M0 0 C1.72071471 3.2389924 2.98797542 6.53566908 4.1875 10 C4.55230469 11.03125 4.91710937 12.0625 5.29296875 13.125 C6.00164545 16.00669087 6.13779279 17.30300969 5 20 C4.34 20.66 3.68 21.32 3 22 C2.01 18.7 1.02 15.4 0 12 C-0.33 14.64 -0.66 17.28 -1 20 C-1.33 20 -1.66 20 -2 20 C-2.05379226 17.04142591 -2.09357093 14.08382279 -2.125 11.125 C-2.14175781 10.28324219 -2.15851563 9.44148438 -2.17578125 8.57421875 C-2.18222656 7.76855469 -2.18867187 6.96289062 -2.1953125 6.1328125 C-2.21102295 5.01737061 -2.21102295 5.01737061 -2.22705078 3.87939453 C-2 2 -2 2 0 0 Z " fill="#191B20" transform="translate(73,92)"/>
<path d="M0 0 C1.32 0 2.64 0 4 0 C3.67 2.97 3.34 5.94 3 9 C2.67 9 2.34 9 2 9 C1.67 14.61 1.34 20.22 1 26 C-0.32 25.67 -1.64 25.34 -3 25 C-2.67 24.67 -2.34 24.34 -2 24 C-1.85469013 22.30571693 -1.77283477 20.60589258 -1.71875 18.90625 C-1.68136719 17.87628906 -1.64398438 16.84632812 -1.60546875 15.78515625 C-1.57066406 14.70105469 -1.53585938 13.61695312 -1.5 12.5 C-1.43143859 10.36443906 -1.35874988 8.22900524 -1.28125 6.09375 C-1.25095703 5.14177734 -1.22066406 4.18980469 -1.18945312 3.20898438 C-1 1 -1 1 0 0 Z " fill="#030408" transform="translate(70,86)"/>
<path d="M0 0 C0 4.29 0 8.58 0 13 C-0.66 13 -1.32 13 -2 13 C-2 11.35 -2 9.7 -2 8 C-2.33 9.32 -2.66 10.64 -3 12 C-3.66 12 -4.32 12 -5 12 C-5.33 13.32 -5.66 14.64 -6 16 C-6.66 15.67 -7.32 15.34 -8 15 C-7.01 13.35 -6.02 11.7 -5 10 C-5.66 9.67 -6.32 9.34 -7 9 C-7 6.69 -7 4.38 -7 2 C-2.25 0 -2.25 0 0 0 Z " fill="#93A3BA" transform="translate(76,128)"/>
<path d="M0 0 C4.08803327 1.4296947 7.21670936 3.42413355 10.6875 6 C12.11642578 7.051875 12.11642578 7.051875 13.57421875 8.125 C16 10 16 10 18 12 C12.30592302 12.89906479 8.84350988 10.47215379 4.171875 7.60546875 C2 6 2 6 0 3 C0 2.01 0 1.02 0 0 Z " fill="#A3AAB4" transform="translate(3,100)"/>
<path d="M0 0 C0.99 0 1.98 0 3 0 C3 7.26 3 14.52 3 22 C2.01 22 1.02 22 0 22 C0 14.74 0 7.48 0 0 Z " fill="#B8B8B8" transform="translate(57,54)"/>
<path d="M0 0 C1.65 0 3.3 0 5 0 C5 6.93 5 13.86 5 21 C4.01 21 3.02 21 2 21 C1.97494385 20.43490723 1.9498877 19.86981445 1.92407227 19.28759766 C1.80820044 16.73316258 1.68543463 14.1791045 1.5625 11.625 C1.52318359 10.73554687 1.48386719 9.84609375 1.44335938 8.9296875 C1.38051758 7.65351562 1.38051758 7.65351562 1.31640625 6.3515625 C1.27974854 5.56604004 1.24309082 4.78051758 1.20532227 3.97119141 C1.109109 1.92476504 1.109109 1.92476504 0 0 Z " fill="#B0B0B0" transform="translate(76,51)"/>
<path d="M0 0 C1.99954746 -0.04254356 4.00041636 -0.04080783 6 0 C6.33 0.33 6.66 0.66 7 1 C8.85287502 1.07226502 10.70833878 1.0838122 12.5625 1.0625 C13.57441406 1.05347656 14.58632812 1.04445312 15.62890625 1.03515625 C16.41136719 1.02355469 17.19382812 1.01195312 18 1 C18 1.66 18 2.32 18 3 C16.35 3.33 14.7 3.66 13 4 C13.33 4.99 13.66 5.98 14 7 C10.87836832 8.37351794 9.66188419 7.89111525 6.3125 6.8125 C3 5 3 5 2.1875 2.875 C2.125625 2.25625 2.06375 1.6375 2 1 C1.34 0.67 0.68 0.34 0 0 Z " fill="#EEEEEE" transform="translate(61,47)"/>
<path d="M0 0 C4.875 1.75 4.875 1.75 6 4 C6.4634458 8.63445803 6.7255771 11.66602401 3.8125 15.4375 C1.00099259 17.99909564 -0.27226686 18.78698668 -4 19 C-2.92657227 16.40588299 -2.30637235 15.18922998 0.125 13.6875 C2.37424767 12.03924599 2.37424767 12.03924599 2.375 8.625 C2.03257925 5.31493273 1.44065701 2.97135509 0 0 Z " fill="#19180A" transform="translate(82,6)"/>
<path d="M0 0 C5.60625406 3.00563431 11.18661116 6.05492007 16.6875 9.25 C17.51636719 9.72953125 18.34523438 10.2090625 19.19921875 10.703125 C19.79347656 11.13109375 20.38773438 11.5590625 21 12 C21 12.66 21 13.32 21 14 C18.69 14.33 16.38 14.66 14 15 C13 12 13 12 13 10 C8.71 7.69 4.42 5.38 0 3 C0 2.01 0 1.02 0 0 Z " fill="#808793" transform="translate(84,64)"/>
<path d="M0 0 C2.94766585 -0.35947145 5.15641898 -0.54890546 7.7109375 1.11328125 C8.28070313 1.57089844 8.85046875 2.02851562 9.4375 2.5 C12.94721782 5.281138 15.50255421 5.45892304 20 5 C20 5.66 20 6.32 20 7 C16.15222779 8.86891793 14.09820181 9.19932671 10 8 C7.32421875 6.40625 7.32421875 6.40625 4.6875 4.5 C3.80449219 3.8709375 2.92148437 3.241875 2.01171875 2.59375 C1.34785156 2.0678125 0.68398438 1.541875 0 1 C0 0.67 0 0.34 0 0 Z " fill="#0C0E15" transform="translate(40,125)"/>
<path d="M0 0 C0 0.99 0 1.98 0 3 C-0.66 2.67 -1.32 2.34 -2 2 C-2 8.6 -2 15.2 -2 22 C-2.66 22 -3.32 22 -4 22 C-4 15.07 -4 8.14 -4 1 C-5.32 0.67 -6.64 0.34 -8 0 C-5.13822943 -1.43088528 -3.06624227 -0.59991697 0 0 Z " fill="#717171" transform="translate(70,53)"/>
<path d="M0 0 C0 0.99 0 1.98 0 3 C-2.10251861 3.67184618 -4.20707763 4.33730968 -6.3125 5 C-8.07013672 5.556875 -8.07013672 5.556875 -9.86328125 6.125 C-13 7 -13 7 -16 7 C-15.76171875 5.109375 -15.76171875 5.109375 -15 3 C-10.42464984 0.41853928 -5.19488998 -0.39960692 0 0 Z " fill="#A6A8AA" transform="translate(128,97)"/>
<path d="M0 0 C0.99 0 1.98 0 3 0 C3 5.94 3 11.88 3 18 C2.01 18.33 1.02 18.66 0 19 C0 12.73 0 6.46 0 0 Z " fill="#BAC3CD" transform="translate(80,126)"/>
<path d="M0 0 C0 2.31 0 4.62 0 7 C0.99 6.67 1.98 6.34 3 6 C5.33299825 5.96045766 7.66708189 5.95598268 10 6 C9.01 6.495 9.01 6.495 8 7 C8 7.66 8 8.32 8 9 C6.56589632 9.24954005 5.12739928 9.47392642 3.6875 9.6875 C2.88699219 9.81511719 2.08648437 9.94273438 1.26171875 10.07421875 C-1 10 -1 10 -2.8046875 8.71484375 C-4 7 -4 7 -3.8125 3.875 C-3.544375 2.92625 -3.27625 1.9775 -3 1 C-1 0 -1 0 0 0 Z " fill="#07070A" transform="translate(57,69)"/>
<path d="M0 0 C0 0.66 0 1.32 0 2 C-1.65 2.66 -3.3 3.32 -5 4 C-5 4.66 -5 5.32 -5 6 C-4.01 6.33 -3.02 6.66 -2 7 C-2 7.66 -2 8.32 -2 9 C-6.61513112 7.68139111 -10.09897612 5.78644563 -14 3 C-4.91666667 -1.89102564 -4.91666667 -1.89102564 0 0 Z " fill="#818EA1" transform="translate(38,69)"/>
<path d="M0 0 C0 4.33333333 0 8.66666667 0 13 C-0.33 13 -0.66 13 -1 13 C-1 9.7 -1 6.4 -1 3 C-1.99 3 -2.98 3 -4 3 C-4 8.94 -4 14.88 -4 21 C-4.33 21 -4.66 21 -5 21 C-5.03738281 19.96359375 -5.07476562 18.9271875 -5.11328125 17.859375 C-5.17895788 16.48954816 -5.24540464 15.11975809 -5.3125 13.75 C-5.33505859 13.06808594 -5.35761719 12.38617188 -5.38085938 11.68359375 C-5.60354582 7.51328391 -6.15179668 5.08491726 -9 2 C-9 1.67 -9 1.34 -9 1 C-2.25 -1.125 -2.25 -1.125 0 0 Z " fill="#25282D" transform="translate(84,123)"/>
<path d="M0 0 C0.33 1.32 0.66 2.64 1 4 C-0.91040052 4.8680908 -2.82860737 5.71901783 -4.75 6.5625 C-5.81734375 7.03816406 -6.8846875 7.51382813 -7.984375 8.00390625 C-10.97236404 8.99087154 -12.18139601 9.31051915 -15 8 C-15.33 7.34 -15.66 6.68 -16 6 C-14.25307205 5.32532438 -12.50231475 4.66055844 -10.75 4 C-9.77546875 3.62875 -8.8009375 3.2575 -7.796875 2.875 C-5 2 -5 2 -1 2 C-0.67 1.34 -0.34 0.68 0 0 Z " fill="#171B22" transform="translate(107,139)"/>
<path d="M0 0 C7.42857143 -0.14285714 7.42857143 -0.14285714 11 1 C10 4 10 4 7.875 5.25 C4.30033417 6.18252152 1.59483517 5.70486964 -2 5 C-1 2 -1 2 0 0 Z " fill="#91A3BB" transform="translate(58,83)"/>
<path d="M0 0 C0.66 0 1.32 0 2 0 C2 1.98 2 3.96 2 6 C1.01 6.495 1.01 6.495 0 7 C0 6.34 0 5.68 0 5 C-3.96 5.99 -7.92 6.98 -12 8 C-12.33 7.34 -12.66 6.68 -13 6 C-12 4 -12 4 -10.4375 3.375 C-6.93601819 2.83631049 -3.54193167 2.94096781 0 3 C0 2.01 0 1.02 0 0 Z " fill="#1B1D22" transform="translate(54,59)"/>
<path d="M0 0 C0.99 0.33 1.98 0.66 3 1 C4.28317892 4.84953676 4.06643637 7.94738135 4 12 C3.34 11.34 2.68 10.68 2 10 C1.01 10 0.02 10 -1 10 C-2.6875 8.5 -2.6875 8.5 -4 7 C-3.34 6.030625 -2.68 5.06125 -2 4.0625 C0.09113148 1.4700747 0.09113148 1.4700747 0 0 Z " fill="#91A3BA" transform="translate(46,139)"/>
<path d="M0 0 C0.33 0 0.66 0 1 0 C1.06058594 0.90363281 1.12117188 1.80726562 1.18359375 2.73828125 C1.26738281 3.91777344 1.35117188 5.09726563 1.4375 6.3125 C1.55931641 8.07013672 1.55931641 8.07013672 1.68359375 9.86328125 C1.8867371 13.02590958 1.8867371 13.02590958 3 16 C5.10584438 16.80563638 5.10584438 16.80563638 7.5625 17.1875 C8.80193359 17.42533203 8.80193359 17.42533203 10.06640625 17.66796875 C11.02353516 17.83232422 11.02353516 17.83232422 12 18 C12 18.33 12 18.66 12 19 C5.565 19.495 5.565 19.495 -1 20 C-0.67 13.4 -0.34 6.8 0 0 Z " fill="#828E9E" transform="translate(116,120)"/>
<path d="M0 0 C4.67105792 1.55701931 8.08705685 4.08447373 12 7 C11.67 7.99 11.34 8.98 11 10 C9.72549553 9.40361667 8.45553123 8.79752584 7.1875 8.1875 C6.12595703 7.68283203 6.12595703 7.68283203 5.04296875 7.16796875 C2.94204895 5.96686928 1.50938722 4.89030513 0 3 C0 2.01 0 1.02 0 0 Z " fill="#B1B9C5" transform="translate(38,125)"/>
<path d="M0 0 C0.66 0.99 1.32 1.98 2 3 C1.01 4.32 0.02 5.64 -1 7 C-0.34 7.33 0.32 7.66 1 8 C0.67 8.99 0.34 9.98 0 11 C-3.63 8.69 -7.26 6.38 -11 4 C-7.37673261 2.7922442 -6.35853631 3.45688872 -3 5 C-2.67 4.01 -2.34 3.02 -2 2 C-1.34 2 -0.68 2 0 2 C0 1.34 0 0.68 0 0 Z " fill="#8594A6" transform="translate(51,118)"/>
<path d="M0 0 C-2.83187553 2.83187553 -6.14622678 3.41788129 -10 4 C-13 3.625 -13 3.625 -15 3 C-15 2.34 -15 1.68 -15 1 C-4.44191344 -2.81321185 -4.44191344 -2.81321185 0 0 Z " fill="#A4A4A8" transform="translate(70,115)"/>
<path d="M0 0 C0 1.65 0 3.3 0 5 C-1.28926992 5.36279456 -2.58153272 5.71496698 -3.875 6.0625 C-4.95394531 6.35833984 -4.95394531 6.35833984 -6.0546875 6.66015625 C-8 7 -8 7 -10 6 C-9.875 4.125 -9.875 4.125 -9 2 C-5.82254537 0.61849799 -3.46877176 0 0 0 Z " fill="#A7AEB9" transform="translate(139,109)"/>
<path d="M0 0 C2.61437258 3.92155886 2.21703011 7.44236768 2 12 C1.67 12.99 1.34 13.98 1 15 C0.01 15.33 -0.98 15.66 -2 16 C-2 12.37 -2 8.74 -2 5 C-1.34 5 -0.68 5 0 5 C0 3.35 0 1.7 0 0 Z " fill="#B1B8C5" transform="translate(110,128)"/>
<path d="M0 0 C-1 2 -1 2 -2 3 C-1.979375 4.11375 -1.95875 5.2275 -1.9375 6.375 C-2 10 -2 10 -4 13 C-4.63292383 15.11280345 -4.63292383 15.11280345 -5 17 C-5 16.01 -5 15.02 -5 14 C-6.32 13.67 -7.64 13.34 -9 13 C-8.34 13 -7.68 13 -7 13 C-7 12.01 -7 11.02 -7 10 C-6.01 9.67 -5.02 9.34 -4 9 C-3.67 7.35 -3.34 5.7 -3 4 C-4.32 4.33 -5.64 4.66 -7 5 C-7 4.34 -7 3.68 -7 3 C-7.66 2.67 -8.32 2.34 -9 2 C-3.375 0 -3.375 0 0 0 Z " fill="#1F232A" transform="translate(67,127)"/>
<path d="M0 0 C0.33 1.65 0.66 3.3 1 5 C0.01 5.66 -0.98 6.32 -2 7 C-2.73343428 10.06556598 -2.73343428 10.06556598 -3 13 C-5.39073445 9.17482487 -5.55966552 5.40334476 -6 1 C-3 0 -3 0 0 0 Z " fill="#8794A7" transform="translate(79,87)"/>
<path d="M0 0 C2 1 2 1 3 3 C3.99 3.66 4.98 4.32 6 5 C4.35 6.32 2.7 7.64 1 9 C-0.32 8.34 -1.64 7.68 -3 7 C-3 3 -3 3 -1.5 1.25 C-1.005 0.8375 -0.51 0.425 0 0 Z " fill="#E7E720" transform="translate(62,5)"/>
<path d="M0 0 C0.33 0.66 0.66 1.32 1 2 C0.01 2.66 -0.98 3.32 -2 4 C-2.72382467 6.05925139 -2.72382467 6.05925139 -3 8 C-4.32 7.67 -5.64 7.34 -7 7 C-6.67 6.01 -6.34 5.02 -6 4 C-6.99 3.67 -7.98 3.34 -9 3 C-8.67 2.01 -8.34 1.02 -8 0 C-5.09660535 -1.45169732 -3.09125158 -0.72348441 0 0 Z " fill="#90A1B6" transform="translate(58,122)"/>
<path d="M0 0 C1.33417969 0.00386719 1.33417969 0.00386719 2.6953125 0.0078125 C4.02175781 0.00394531 4.02175781 0.00394531 5.375 0 C7.8203125 0.1328125 7.8203125 0.1328125 10.8203125 1.1328125 C10.4903125 2.1228125 10.1603125 3.1128125 9.8203125 4.1328125 C8.02938059 4.21367397 6.23741622 4.27193952 4.4453125 4.3203125 C2.94871094 4.37251953 2.94871094 4.37251953 1.421875 4.42578125 C0.56335938 4.32910156 -0.29515625 4.23242188 -1.1796875 4.1328125 C-1.8396875 3.1428125 -2.4996875 2.1528125 -3.1796875 1.1328125 C-2.1796875 0.1328125 -2.1796875 0.1328125 0 0 Z " fill="#FBFA05" transform="translate(66.1796875,4.8671875)"/>
<path d="M0 0 C0.99 0.33 1.98 0.66 3 1 C3 1.99 3 2.98 3 4 C2.01 4 1.02 4 0 4 C-0.433125 5.2065625 -0.433125 5.2065625 -0.875 6.4375 C-2 9 -2 9 -4 10 C-4 10.99 -4 11.98 -4 13 C-4.66 13 -5.32 13 -6 13 C-6.8125 10.3125 -6.8125 10.3125 -7 7 C-4.6875 4.25 -4.6875 4.25 -2 2 C-1.34 1.34 -0.68 0.68 0 0 Z " fill="#1F2228" transform="translate(13,87)"/>
<path d="M0 0 C0.7425 0.2475 1.485 0.495 2.25 0.75 C2.25 1.74 2.25 2.73 2.25 3.75 C-1.71 5.73 -1.71 5.73 -5.75 7.75 C-6.08 6.43 -6.41 5.11 -6.75 3.75 C-4.62771652 0.72982736 -3.76812267 -0.34255661 0 0 Z " fill="#DEDDDE" transform="translate(71.75,12.25)"/>
<path d="M0 0 C0 0.66 0 1.32 0 2 C0.66 2.33 1.32 2.66 2 3 C1.01 3.33 0.02 3.66 -1 4 C-1.33 7.3 -1.66 10.6 -2 14 C-2.33 14 -2.66 14 -3 14 C-3.144375 12.88625 -3.28875 11.7725 -3.4375 10.625 C-3.78372035 7.17857953 -3.78372035 7.17857953 -5 5 C-5.99 5 -6.98 5 -8 5 C-7.67 4.01 -7.34 3.02 -7 2 C-4.56723614 0.81480735 -2.71982714 0 0 0 Z " fill="#1B1E25" transform="translate(111,114)"/>
<path d="M0 0 C3.37503669 1.1858237 5.64722731 2.27573689 8 5 C4.17679443 6.42258812 1.08718695 7.24042276 -3 7 C-2.67 6.01 -2.34 5.02 -2 4 C-1.34 4 -0.68 4 0 4 C0 2.68 0 1.36 0 0 Z " fill="#888786" transform="translate(83,70)"/>
<path d="M0 0 C0.66 0.33 1.32 0.66 2 1 C2 1.66 2 2.32 2 3 C0.68 3.33 -0.64 3.66 -2 4 C-1.67 4.33 -1.34 4.66 -1 5 C-0.91286169 6.70772358 -0.89299993 8.41898649 -0.90234375 10.12890625 C-0.90717773 11.68061523 -0.90717773 11.68061523 -0.91210938 13.26367188 C-0.92048828 14.35228516 -0.92886719 15.44089844 -0.9375 16.5625 C-0.94201172 17.65498047 -0.94652344 18.74746094 -0.95117188 19.87304688 C-0.96300174 22.58208495 -0.97948457 25.29101599 -1 28 C-1.33 28 -1.66 28 -2 28 C-2.33 20.41 -2.66 12.82 -3 5 C-3.99 4.67 -4.98 4.34 -6 4 C-5.67 3.34 -5.34 2.68 -5 2 C-3.35 2 -1.7 2 0 2 C0 1.34 0 0.68 0 0 Z " fill="#454545" transform="translate(79,48)"/>
<path d="M0 0 C5.30180097 -0.1232977 9.89685321 0.67696194 15 2 C14.01 2.66 13.02 3.32 12 4 C12 4.33 12 4.66 12 5 C6.76824163 5.38281159 3.62197306 4.21854707 -1 2 C-0.67 1.34 -0.34 0.68 0 0 Z " fill="#161616" transform="translate(62,44)"/>
<path d="M0 0 C0.99 0.33 1.98 0.66 3 1 C0.9375 3.5625 0.9375 3.5625 -2 6 C-5.6875 6.0625 -5.6875 6.0625 -9 5 C-10.4375 2.9375 -10.4375 2.9375 -11 1 C-9.9275 1.20625 -8.855 1.4125 -7.75 1.625 C-3.94888583 2.00511142 -3.1250343 1.78573389 0 0 Z " fill="#1A1910" transform="translate(67,11)"/>
<path d="M0 0 C3.87132028 0.57352893 6.08172796 2.48704352 9 5 C5.73086376 6.03115279 3.13958652 5.9638984 -0.25 5.5625 C-1.14203125 5.46066406 -2.0340625 5.35882813 -2.953125 5.25390625 C-3.62859375 5.17011719 -4.3040625 5.08632812 -5 5 C-5 4.34 -5 3.68 -5 3 C-3.35 2.67 -1.7 2.34 0 2 C0 1.34 0 0.68 0 0 Z " fill="#06090F" transform="translate(20,109)"/>
<path d="M0 0 C0.66 0.33 1.32 0.66 2 1 C1.319375 1.9075 0.63875 2.815 -0.0625 3.75 C-2.26982809 6.71472615 -2.26982809 6.71472615 -1.75 9.375 C-1.5025 9.91125 -1.255 10.4475 -1 11 C-2.65 11 -4.3 11 -6 11 C-6.75 9.3125 -6.75 9.3125 -7 7 C-4.91882331 3.87823497 -3.13348366 2.08898911 0 0 Z " fill="#2E2C14" transform="translate(61,2)"/>
<path d="M0 0 C0.55171875 0.36867187 1.1034375 0.73734375 1.671875 1.1171875 C-0.79113923 3.58020173 -2.60172536 3.88485271 -5.953125 4.7421875 C-6.95601563 5.00257813 -7.95890625 5.26296875 -8.9921875 5.53125 C-9.76304688 5.72460938 -10.53390625 5.91796875 -11.328125 6.1171875 C-11.658125 5.1271875 -11.988125 4.1371875 -12.328125 3.1171875 C-10.7533956 2.38992698 -9.16788221 1.68598328 -7.578125 0.9921875 C-6.69640625 0.59773437 -5.8146875 0.20328125 -4.90625 -0.203125 C-2.328125 -0.8828125 -2.328125 -0.8828125 0 0 Z " fill="#1B1D20" transform="translate(94.328125,150.8828125)"/>
<path d="M0 0 C2 1.375 2 1.375 4 3 C4 3.66 4 4.32 4 5 C0.12315913 6.19287411 -2.91621923 7 -7 7 C-6.67 5.68 -6.34 4.36 -6 3 C-5.01 3 -4.02 3 -3 3 C-1.31201173 1.56249809 -1.31201173 1.56249809 0 0 Z " fill="#ACB3BE" transform="translate(118,90)"/>
<path d="M0 0 C1.12025107 3.33027019 0.89423549 5.36541892 -0.1875 8.6875 C-0.42855469 9.47511719 -0.66960937 10.26273438 -0.91796875 11.07421875 C-2 13 -2 13 -4.11328125 13.76953125 C-4.73589844 13.84558594 -5.35851562 13.92164063 -6 14 C-5.71125 13.505 -5.4225 13.01 -5.125 12.5 C-3.84010231 9.64467181 -3.20796004 6.85909662 -2.5625 3.8046875 C-2 2 -2 2 0 0 Z " fill="#16181B" transform="translate(132,128)"/>
<path d="M0 0 C0.66 0.33 1.32 0.66 2 1 C2 1.99 2 2.98 2 4 C1.34 4 0.68 4 0 4 C-0.309375 4.639375 -0.61875 5.27875 -0.9375 5.9375 C-2 8 -2 8 -3 9 C-4.68608966 9.07205511 -6.37500659 9.08386068 -8.0625 9.0625 C-8.98160156 9.05347656 -9.90070313 9.04445313 -10.84765625 9.03515625 C-11.55792969 9.02355469 -12.26820312 9.01195312 -13 9 C-13.33 8.34 -13.66 7.68 -14 7 C-11.03 7 -8.06 7 -5 7 C-4.731875 6.21625 -4.46375 5.4325 -4.1875 4.625 C-3 2 -3 2 0 0 Z " fill="#2E2E1C" transform="translate(78,22)"/>
<path d="M0 0 C0 0.66 0 1.32 0 2 C0.66 2.33 1.32 2.66 2 3 C2.33 3.99 2.66 4.98 3 6 C1.02 6.33 -0.96 6.66 -3 7 C-4 5 -4 5 -4 3 C-5.32 2.67 -6.64 2.34 -8 2 C-2.25 0 -2.25 0 0 0 Z " fill="#8290A2" transform="translate(123,104)"/>
<path d="M0 0 C-0.33 0.99 -0.66 1.98 -1 3 C-3.06640625 3.94921875 -3.06640625 3.94921875 -5.5625 4.6875 C-6.38878906 4.93886719 -7.21507812 5.19023438 -8.06640625 5.44921875 C-9.02353516 5.72185547 -9.02353516 5.72185547 -10 6 C-10 5.34 -10 4.68 -10 4 C-10.66 3.67 -11.32 3.34 -12 3 C-10.3789897 2.30314502 -8.75303934 1.61777139 -7.125 0.9375 C-6.22007813 0.55464844 -5.31515625 0.17179687 -4.3828125 -0.22265625 C-2 -1 -2 -1 0 0 Z " fill="#13171E" transform="translate(70,87)"/>
<path d="M0 0 C-5.625 4 -5.625 4 -9 4 C-9 6.97 -9 9.94 -9 13 C-9.33 13 -9.66 13 -10 13 C-10 9.04 -10 5.08 -10 1 C-3.71428571 -1.42857143 -3.71428571 -1.42857143 0 0 Z " fill="#7B8596" transform="translate(96,123)"/>
<path d="M0 0 C4.51013391 0.53060399 7.38378219 2.30886117 11 5 C11 5.33 11 5.66 11 6 C6.39374606 6.32136655 3.66486096 5.91033076 0 3 C0 2.01 0 1.02 0 0 Z " fill="#ABB3BC" transform="translate(10,106)"/>
<path d="M0 0 C1.98 0.99 1.98 0.99 4 2 C4.75 5.125 4.75 5.125 5 8 C4.34 8 3.68 8 3 8 C3 9.98 3 11.96 3 14 C2.67 14 2.34 14 2 14 C1.34 9.38 0.68 4.76 0 0 Z " fill="#A6ADB7" transform="translate(108,79)"/>
<path d="M0 0 C1.65 0 3.3 0 5 0 C5.66 2.31 6.32 4.62 7 7 C5.35 7.33 3.7 7.66 2 8 C1.67 7.01 1.34 6.02 1 5 C0.34 4.67 -0.32 4.34 -1 4 C-0.67 2.68 -0.34 1.36 0 0 Z " fill="#2F2F2F" transform="translate(57,44)"/>
<path d="M0 0 C-0.875 4.875 -0.875 4.875 -2 6 C-3.66617115 6.04063832 -5.33388095 6.042721 -7 6 C-6.75 4.125 -6.75 4.125 -6 2 C-3.85331506 0.61504198 -2.56128588 0 0 0 Z " fill="#F9F913" transform="translate(76,21)"/>
<path d="M0 0 C0.33 0.99 0.66 1.98 1 3 C-0.41433206 3.2236337 -1.83167618 3.42826476 -3.25 3.625 C-4.03890625 3.74101563 -4.8278125 3.85703125 -5.640625 3.9765625 C-8.32152459 4.00319395 -9.72694089 3.36592084 -12 2 C-10.7625 1.67 -9.525 1.34 -8.25 1 C-7.55390625 0.814375 -6.8578125 0.62875 -6.140625 0.4375 C-4 0 -4 0 0 0 Z " fill="#10141B" transform="translate(124,111)"/>
<path d="M0 0 C0.625 3.0625 0.625 3.0625 1 6 C-1.97 5.505 -1.97 5.505 -5 5 C-5.33 3.35 -5.66 1.7 -6 0 C-2.25 -1.125 -2.25 -1.125 0 0 Z " fill="#0E0E12" transform="translate(7,96)"/>
<path d="M0 0 C0.33 0.66 0.66 1.32 1 2 C4.465 1.505 4.465 1.505 8 1 C7.67 1.99 7.34 2.98 7 4 C2.545 4.495 2.545 4.495 -2 5 C-2 4.34 -2 3.68 -2 3 C-1.34 3 -0.68 3 0 3 C0 2.01 0 1.02 0 0 Z " fill="#0A0E15" transform="translate(85,145)"/>
<path d="M0 0 C2.97 0 5.94 0 9 0 C9 0.66 9 1.32 9 2 C6.36 2.99 3.72 3.98 1 5 C0.67 3.35 0.34 1.7 0 0 Z " fill="#0B0C13" transform="translate(51,138)"/>
<path d="M0 0 C0.7425 0.391875 1.485 0.78375 2.25 1.1875 C0.25 1.85416667 -1.75 2.52083333 -3.75 3.1875 C-4.76754868 5.0528245 -4.76754868 5.0528245 -5.4375 7.25 C-5.68886719 7.98347656 -5.94023437 8.71695313 -6.19921875 9.47265625 C-6.38097656 10.03855469 -6.56273438 10.60445312 -6.75 11.1875 C-8.34157575 8.0043485 -7.52242108 5.57426935 -6.75 2.1875 C-4.34584843 -0.64596435 -3.6070775 -1.06572744 0 0 Z " fill="#393A3B" transform="translate(25.75,68.8125)"/>
<path d="M0 0 C1.32 0 2.64 0 4 0 C4.66 1.65 5.32 3.3 6 5 C4.1875 6.0625 4.1875 6.0625 2 7 C1.01 6.67 0.02 6.34 -1 6 C-0.34 5.34 0.32 4.68 1 4 C0.6814823 1.89179203 0.6814823 1.89179203 0 0 Z " fill="#8693A4" transform="translate(128,102)"/>
<path d="M0 0 C0.99 0.66 1.98 1.32 3 2 C-0.9813783 3.3271261 -4.85045227 3.06915913 -9 3 C-6.07868595 -0.19953443 -4.37453972 -1.45817991 0 0 Z " fill="#101317" transform="translate(91,76)"/>
<path d="M0 0 C0.33 0.66 0.66 1.32 1 2 C3.52733235 2.65555119 3.52733235 2.65555119 6 3 C3.87219421 5.34058637 1.88437779 6.70700306 -1 8 C-1.625 5.125 -1.625 5.125 -2 2 C-1.34 1.34 -0.68 0.68 0 0 Z " fill="#E2E31F" transform="translate(77,16)"/>
<path d="M0 0 C2.73625437 1.47336774 3.38708421 2.44772966 4.4375 5.3125 C0.03635603 4.80951212 -2.27445019 3.22477269 -5.5625 0.3125 C-2.5625 -0.6875 -2.5625 -0.6875 0 0 Z " fill="#1B1B1B" transform="translate(129.5625,94.6875)"/>
<path d="M0 0 C0.66 0.99 1.32 1.98 2 3 C0.68 2.67 -0.64 2.34 -2 2 C-2 2.66 -2 3.32 -2 4 C-4.375 4.625 -4.375 4.625 -7 5 C-7.66 4.34 -8.32 3.68 -9 3 C-6.07868595 -0.19953443 -4.37453972 -1.45817991 0 0 Z " fill="#93A4BA" transform="translate(41,69)"/>
<path d="M0 0 C0.33 0 0.66 0 1 0 C1.33 1.98 1.66 3.96 2 6 C2.33 6 2.66 6 3 6 C2.67 8.64 2.34 11.28 2 14 C1.34 13.67 0.68 13.34 0 13 C0 8.71 0 4.42 0 0 Z " fill="#060C12" transform="translate(105,128)"/>
<path d="M0 0 C1.32 0 2.64 0 4 0 C5 3 5 3 5 6 C3.35 6 1.7 6 0 6 C0 4.02 0 2.04 0 0 Z " fill="#1C1F24" transform="translate(50,112)"/>
<path d="M0 0 C0.763125 0.350625 1.52625 0.70125 2.3125 1.0625 C5.04759379 2.32360884 5.04759379 2.32360884 8 1 C9.32 1.66 10.64 2.32 12 3 C8.37 3.66 4.74 4.32 1 5 C0.67 3.35 0.34 1.7 0 0 Z " fill="#8997AA" transform="translate(108,109)"/>
<path d="M0 0 C0.66 0 1.32 0 2 0 C1.67 2.97 1.34 5.94 1 9 C0.34 8.67 -0.32 8.34 -1 8 C-1 7.34 -1 6.68 -1 6 C-1.99 5.67 -2.98 5.34 -4 5 C-3.01 4.34 -2.02 3.68 -1 3 C-0.67 2.01 -0.34 1.02 0 0 Z " fill="#05070F" transform="translate(17,84)"/>
<path d="M0 0 C0 0.66 0 1.32 0 2 C-3.82989106 3.80230168 -6.78121808 4.19622241 -11 4 C-7.54424257 0.54424257 -4.86390948 -0.27021719 0 0 Z " fill="#060A10" transform="translate(98,80)"/>
<path d="M0 0 C0.66 0.66 1.32 1.32 2 2 C-1.81756824 3.37432457 -5.07255329 2.67975039 -9 2 C-7.01176662 -1.97646676 -3.67810698 -1.03741479 0 0 Z " fill="#0C0D0C" transform="translate(82,46)"/>
<path d="M0 0 C0 1.98 0 3.96 0 6 C-1.98 6 -3.96 6 -6 6 C-5.34 5.67 -4.68 5.34 -4 5 C-4 3.68 -4 2.36 -4 1 C-2 0 -2 0 0 0 Z " fill="#FCFB0A" transform="translate(83,13)"/>
<path d="M0 0 C1.32 0 2.64 0 4 0 C4 1.98 4 3.96 4 6 C5.32 6.33 6.64 6.66 8 7 C6.35 7 4.7 7 3 7 C3 6.34 3 5.68 3 5 C2.01 4.67 1.02 4.34 0 4 C0 2.68 0 1.36 0 0 Z " fill="#9AA2AC" transform="translate(79,144)"/>
<path d="M0 0 C0.66 0 1.32 0 2 0 C2.29296875 6.0546875 2.29296875 6.0546875 2 8 C1.01 8.66 0.02 9.32 -1 10 C-0.67 6.7 -0.34 3.4 0 0 Z " fill="#020508" transform="translate(131,120)"/>
<path d="M0 0 C0.33 0.99 0.66 1.98 1 3 C0.01 3.33 -0.98 3.66 -2 4 C-2.66 3.34 -3.32 2.68 -4 2 C-4.33 2.66 -4.66 3.32 -5 4 C-7.475 3.01 -7.475 3.01 -10 2 C-6.5980513 -0.09350689 -3.94727588 -0.17942163 0 0 Z " fill="#8290A1" transform="translate(126,114)"/>
<path d="M0 0 C0.66 0 1.32 0 2 0 C1.34 3.3 0.68 6.6 0 10 C-0.33 8.68 -0.66 7.36 -1 6 C-1.66 6 -2.32 6 -3 6 C-1.125 1.125 -1.125 1.125 0 0 Z " fill="#1A1E26" transform="translate(20,78)"/>
<path d="M0 0 C0.66 0.33 1.32 0.66 2 1 C2 4.63 2 8.26 2 12 C-1 8 -1 8 -1.07421875 5.859375 C-0.53710938 2.9296875 -0.53710938 2.9296875 0 0 Z " fill="#0D1018" transform="translate(77,140)"/>
<path d="M0 0 C1.85776765 3.13498292 2.20140476 5.37471432 2 9 C0.68 9 -0.64 9 -2 9 C-2 7.68 -2 6.36 -2 5 C-1.34 5 -0.68 5 0 5 C0 3.35 0 1.7 0 0 Z " fill="#BAC3D2" transform="translate(110,128)"/>
<path d="M0 0 C0.33 0 0.66 0 1 0 C1 3.63 1 7.26 1 11 C0.01 11.495 0.01 11.495 -1 12 C-1.33 9.69 -1.66 7.38 -2 5 C-1.34 5 -0.68 5 0 5 C0 3.35 0 1.7 0 0 Z " fill="#0D1118" transform="translate(12,119)"/>
<path d="M0 0 C0.66 0.66 1.32 1.32 2 2 C-0.64 2.33 -3.28 2.66 -6 3 C-6.33 2.01 -6.66 1.02 -7 0 C-3.98968256 -0.93423645 -3.13349732 -1.04449911 0 0 Z " fill="#969798" transform="translate(62,116)"/>
<path d="M0 0 C1.65 0 3.3 0 5 0 C4.67 2.97 4.34 5.94 4 9 C3.34 8.67 2.68 8.34 2 8 C2 6.02 2 4.04 2 2 C1.34 2 0.68 2 0 2 C0 1.34 0 0.68 0 0 Z " fill="#010108" transform="translate(111,114)"/>
<path d="M0 0 C0.66 0 1.32 0 2 0 C2 1.98 2 3.96 2 6 C1.01 6.495 1.01 6.495 0 7 C0 6.34 0 5.68 0 5 C-1.65 5 -3.3 5 -5 5 C-4.67 4.34 -4.34 3.68 -4 3 C-2.68 3 -1.36 3 0 3 C0 2.01 0 1.02 0 0 Z " fill="#020304" transform="translate(54,59)"/>
<path d="M0 0 C0.33 0.66 0.66 1.32 1 2 C0.34 2.66 -0.32 3.32 -1 4 C-3.72869407 3.96712417 -6.2966618 3.43602229 -9 3 C-6.38997624 -0.48003168 -4.1689578 -0.27793052 0 0 Z " fill="#3C3B03" transform="translate(74,9)"/>
<path d="M0 0 C3.465 1.98 3.465 1.98 7 4 C6.67 4.66 6.34 5.32 6 6 C2.51329166 4.8905928 -0.77484237 3.73662334 -4 2 C-2.68 2 -1.36 2 0 2 C0 1.34 0 0.68 0 0 Z " fill="#3A3817" transform="translate(79,2)"/>
<path d="M0 0 C1.32 0.66 2.64 1.32 4 2 C4 2.66 4 3.32 4 4 C0.535 5.485 0.535 5.485 -3 7 C-2.690625 6.401875 -2.38125 5.80375 -2.0625 5.1875 C-0.89790296 2.91043228 -0.89790296 2.91043228 0 0 Z " fill="#121315" transform="translate(114,139)"/>
<path d="M0 0 C0.33 0.99 0.66 1.98 1 3 C-1.31 3.33 -3.62 3.66 -6 4 C-6 3.34 -6 2.68 -6 2 C-6.66 1.67 -7.32 1.34 -8 1 C-5.10765685 0.17361624 -3.11257569 0 0 0 Z " fill="#0F141B" transform="translate(76,125)"/>
<path d="M0 0 C0.99 0.33 1.98 0.66 3 1 C0.22920113 4.80984844 -3.62868145 5.06840752 -8 6 C-8 5.34 -8 4.68 -8 4 C-5.36 3.34 -2.72 2.68 0 2 C0 1.34 0 0.68 0 0 Z " fill="#8492A5" transform="translate(80,114)"/>
<path d="M0 0 C2 2 2 2 2.125 4.625 C2.08375 5.40875 2.0425 6.1925 2 7 C0.02 7.99 0.02 7.99 -2 9 C-1.34 6.03 -0.68 3.06 0 0 Z " fill="#8695A7" transform="translate(20,84)"/>
<path d="M0 0 C3.82097239 0.53069061 6.06171403 1.49701566 9 4 C7.3125 4.6875 7.3125 4.6875 5 5 C2.25 3.6875 2.25 3.6875 0 2 C0 1.34 0 0.68 0 0 Z " fill="#8A95A5" transform="translate(51,86)"/>
<path d="M0 0 C-1 3 -1 3 -3.375 4.25 C-6 5 -6 5 -9 4 C-3.375 0 -3.375 0 0 0 Z " fill="#8C9BAD" transform="translate(69,84)"/>
<path d="M0 0 C0.99 0 1.98 0 3 0 C2.37240135 2.92879371 1.41377341 5.36095629 0 8 C0 7.01 0 6.02 0 5 C-0.66 5 -1.32 5 -2 5 C-1.34 3.35 -0.68 1.7 0 0 Z " fill="#24230C" transform="translate(66,20)"/>
<path d="M0 0 C5.53846154 -0.36923077 5.53846154 -0.36923077 7.875 1.5 C8.24625 1.995 8.6175 2.49 9 3 C8.34 3 7.68 3 7 3 C6.67 3.66 6.34 4.32 6 5 C3.98079663 3.69593116 1.98075027 2.36176581 0 1 C0 0.67 0 0.34 0 0 Z " fill="#21272C" transform="translate(40,125)"/>
<path d="M0 0 C2.00045613 0.26956501 3.98036247 0.68194312 5.953125 1.109375 C3.53182169 3.53067831 2.15201123 3.63778004 -1.171875 4.234375 C-2.08195312 4.40195313 -2.99203125 4.56953125 -3.9296875 4.7421875 C-4.62835938 4.86335938 -5.32703125 4.98453125 -6.046875 5.109375 C-3.15469741 0.16857162 -3.15469741 0.16857162 0 0 Z " fill="#7F8C9E" transform="translate(76.046875,120.890625)"/>
<path d="M0 0 C0.66 0.33 1.32 0.66 2 1 C2 2.32 2 3.64 2 5 C0.02 5.33 -1.96 5.66 -4 6 C-2.68 4.02 -1.36 2.04 0 0 Z " fill="#05080E" transform="translate(78,111)"/>
<path d="M0 0 C1.32 0.66 2.64 1.32 4 2 C4 3.32 4 4.64 4 6 C2.68 5.34 1.36 4.68 0 4 C0 2.68 0 1.36 0 0 Z M4 1 C6 2 6 2 6 2 Z " fill="#8391A2" transform="translate(9,96)"/>
<path d="M0 0 C0 0.99 0 1.98 0 3 C-1.65 3.33 -3.3 3.66 -5 4 C-5 3.34 -5 2.68 -5 2 C-6.32 1.67 -7.64 1.34 -9 1 C-5.8035914 -0.06546953 -3.34252724 -0.07427838 0 0 Z " fill="#8F9293" transform="translate(128,97)"/>
<path d="M0 0 C0.66 0.33 1.32 0.66 2 1 C2.40729228 3.32156597 2.74438677 5.6568787 3 8 C2.01 8 1.02 8 0 8 C-0.79953138 4.71303767 -1.09658936 3.28976808 0 0 Z " fill="#8592A3" transform="translate(106,93)"/>
<path d="M0 0 C1.9375 0.6875 1.9375 0.6875 4 2 C4.75 4.625 4.75 4.625 5 7 C3.0625 6.3125 3.0625 6.3125 1 5 C0.25 2.375 0.25 2.375 0 0 Z " fill="#22262C" transform="translate(44,152)"/>
<path d="M0 0 C0.33 0 0.66 0 1 0 C1.1875 2.875 1.1875 2.875 1 6 C0.01 6.66 -0.98 7.32 -2 8 C-1.125 1.125 -1.125 1.125 0 0 Z M-3 8 C-2.67 8.66 -2.34 9.32 -2 10 C-2.66 9.67 -3.32 9.34 -4 9 C-3.67 8.67 -3.34 8.34 -3 8 Z " fill="#040608" transform="translate(113,136)"/>
<path d="M0 0 C0.66 0.33 1.32 0.66 2 1 C2 2.98 2 4.96 2 7 C0.35 7 -1.3 7 -3 7 C-2.67 6.01 -2.34 5.02 -2 4 C-1.34 4 -0.68 4 0 4 C0 2.68 0 1.36 0 0 Z " fill="#6E6E6C" transform="translate(83,70)"/>
<path d="M0 0 C1.98 0 3.96 0 6 0 C6 0.99 6 1.98 6 3 C4.02 3 2.04 3 0 3 C0 2.01 0 1.02 0 0 Z " fill="#111217" transform="translate(26,67)"/>
<path d="M0 0 C2.475 0.495 2.475 0.495 5 1 C5 1.99 5 2.98 5 4 C3.35 4 1.7 4 0 4 C0 2.68 0 1.36 0 0 Z " fill="#D1D43B" transform="translate(68,35)"/>
<path d="M0 0 C1.2065625 0.0309375 1.2065625 0.0309375 2.4375 0.0625 C2.1075 0.7225 1.7775 1.3825 1.4375 2.0625 C2.4275 2.3925 3.4175 2.7225 4.4375 3.0625 C3.4375 4.0625 3.4375 4.0625 1 4.3125 C0.154375 4.23 -0.69125 4.1475 -1.5625 4.0625 C-2.2225 3.0725 -2.8825 2.0825 -3.5625 1.0625 C-2.5625 0.0625 -2.5625 0.0625 0 0 Z " fill="#FCFC17" transform="translate(66.5625,4.9375)"/>
<path d="M0 0 C-0.66 1.32 -1.32 2.64 -2 4 C-6.875 2.25 -6.875 2.25 -8 0 C-4.71023192 -1.09658936 -3.28696233 -0.79953138 0 0 Z " fill="#9DA6B0" transform="translate(55,134)"/>
<path d="M0 0 C0.99 0.33 1.98 0.66 3 1 C2.34 1 1.68 1 1 1 C1.66 2.65 2.32 4.3 3 6 C2.01 6.66 1.02 7.32 0 8 C-0.66 7.34 -1.32 6.68 -2 6 C-1.34 4.02 -0.68 2.04 0 0 Z " fill="#383C40" transform="translate(37,124)"/>
<path d="M0 0 C2.475 0.99 2.475 0.99 5 2 C4.01 3.485 4.01 3.485 3 5 C1.35 4.01 -0.3 3.02 -2 2 C-1.34 1.34 -0.68 0.68 0 0 Z " fill="#141A20" transform="translate(28,114)"/>
<path d="M0 0 C0.66 0.66 1.32 1.32 2 2 C1 3 1 3 -0.84765625 3.09765625 C-2.8984375 3.06510417 -4.94921875 3.03255208 -7 3 C-7 2.34 -7 1.68 -7 1 C-3.625 0.375 -3.625 0.375 0 0 Z " fill="#000104" transform="translate(22,111)"/>
<path d="M0 0 C3.63 0.33 7.26 0.66 11 1 C6.84592218 3.07703891 6.1645833 3.31513157 2 2 C1.34 1.34 0.68 0.68 0 0 Z " fill="#706F6F" transform="translate(62,78)"/>
<path d="M0 0 C0 0.66 0 1.32 0 2 C-2.31 2.33 -4.62 2.66 -7 3 C-7 2.01 -7 1.02 -7 0 C-3.86650268 -1.04449911 -3.01031744 -0.93423645 0 0 Z " fill="#78808F" transform="translate(76,83)"/>
<path d="M0 0 C3.96 1.98 3.96 1.98 8 4 C7.67 4.66 7.34 5.32 7 6 C6.34 6 5.68 6 5 6 C5 5.34 5 4.68 5 4 C4.360625 3.896875 3.72125 3.79375 3.0625 3.6875 C2.381875 3.460625 1.70125 3.23375 1 3 C0.67 2.01 0.34 1.02 0 0 Z " fill="#8A96A7" transform="translate(43,71)"/>
<path d="M0 0 C1.98 0 3.96 0 6 0 C5.01 0.495 5.01 0.495 4 1 C4 1.99 4 2.98 4 4 C1.525 3.01 1.525 3.01 -1 2 C-0.67 1.34 -0.34 0.68 0 0 Z " fill="#4B4B48" transform="translate(50,69)"/>
<path d="M0 0 C0.66 0.33 1.32 0.66 2 1 C0.515 3.475 0.515 3.475 -1 6 C-2.32 5.34 -3.64 4.68 -5 4 C-3.35 2.68 -1.7 1.36 0 0 Z " fill="#3E3D36" transform="translate(61,2)"/>
</svg>
